<svg width="108" height="108" viewBox="0 0 108 108" fill="none" xmlns="http://www.w3.org/2000/svg">
<path d="M64.8983 6.18647L77.8621 12.6695L89.9586 20.655C96.3601 24.8809 100.398 31.8746 100.857 39.5315L101.724 54L100.857 68.4685C100.398 76.1254 96.3601 83.1191 89.9586 87.345L77.8621 95.3305L64.8983 101.814C58.0378 105.244 49.9622 105.244 43.1017 101.814L30.1379 95.3305L18.0414 87.345C11.6399 83.1191 7.60212 76.1254 7.14309 68.4685L6.27572 54L7.14309 39.5315C7.60212 31.8746 11.6399 24.8809 18.0414 20.655L30.1379 12.6696L43.1017 6.18647C49.9622 2.75557 58.0378 2.75557 64.8983 6.18647Z" fill="#272A33" stroke="url(#paint0_linear_2756_14595)" stroke-width="1.31707"/>
<path d="M58.6107 70.4636C58.6107 71.191 58.021 71.7806 57.2936 71.7806C56.5662 71.7806 55.9766 71.191 55.9766 70.4636C55.9766 69.7362 56.5662 69.1465 57.2936 69.1465C58.021 69.1465 58.6107 69.7362 58.6107 70.4636Z" fill="url(#paint1_linear_2756_14595)"/>
<circle cx="58.4435" cy="57.7867" r="1.15244" fill="url(#paint2_linear_2756_14595)"/>
<path d="M46.0976 36.8782L46.0976 37.5367L46.0976 36.8782ZM61.9025 36.8782L61.9956 36.2263L61.9025 36.2196V36.8782ZM60.9144 41.8172H61.573C61.573 41.6099 61.4754 41.4148 61.3096 41.2904L60.9144 41.8172ZM53.6708 57.9513L53.4308 57.3381C53.1784 57.4369 53.0123 57.6803 53.0123 57.9513H53.6708ZM53.6708 80.6709L54.3016 80.8601L54.3294 80.6709H53.6708ZM47.744 81.3294L47.0855 81.324V81.3294H47.744ZM59.5976 41.8172L58.9391 41.8172L58.9392 41.8248L59.5976 41.8172ZM59.9266 70.4635L60.5724 70.5927L60.5851 70.456L59.9266 70.4635ZM54.6586 70.4635H54.0001L54.0197 70.6233L54.6586 70.4635ZM54.6586 58.2806L54.421 57.6665L54.0001 58.2806H54.6586ZM59.764 56.305L60.0017 56.9192L60.4225 56.2974L59.764 56.305ZM54.3294 72.1099L54.8562 71.7148C54.6861 71.488 54.39 71.3955 54.1211 71.4851C53.8522 71.5748 53.6708 71.8264 53.6708 72.1099H54.3294ZM59.9266 71.7806H60.5852C60.5852 71.4576 60.3509 71.1823 60.0321 71.1306C59.7133 71.0788 59.404 71.266 59.3019 71.5724L59.9266 71.7806ZM59.5976 40.8294L59.9928 40.3026C59.7933 40.1529 59.5263 40.1288 59.3032 40.2404C59.08 40.3519 58.9391 40.5799 58.9391 40.8294H59.5976ZM47.0852 41.8172L46.6195 41.3515L46.4266 41.8172H47.0852ZM48.073 40.8294L48.7315 40.8347C48.7337 40.5674 48.574 40.3253 48.3275 40.222C48.0809 40.1187 47.7964 40.1747 47.6073 40.3637L48.073 40.8294ZM46.4266 59.2684C46.4266 59.6743 46.3265 60.1097 46.1151 60.4224C45.926 60.702 45.6324 60.9147 45.1096 60.9147V62.2318C46.0887 62.2318 46.7829 61.786 47.2061 61.1602C47.607 60.5673 47.7437 59.8503 47.7437 59.2684H46.4266ZM45.1096 60.9147C44.6794 60.9147 44.2693 60.699 43.9505 60.3483C43.6236 59.9887 43.4632 59.5642 43.4632 59.2684H42.1462C42.1462 59.9604 42.4796 60.6883 42.9759 61.2343C43.4803 61.789 44.2226 62.2318 45.1096 62.2318V60.9147ZM43.4632 59.2684V40.9415H42.1462V59.2684H43.4632ZM43.4632 40.9415C43.4632 40.4376 43.4709 39.5599 43.8144 38.8153C43.9798 38.4566 44.2157 38.1475 44.5552 37.9248C44.8935 37.7029 45.3801 37.5367 46.0976 37.5367L46.0976 36.2196C45.1688 36.2196 44.4207 36.4379 43.8328 36.8235C43.2463 37.2083 42.8646 37.7299 42.6184 38.2636C42.1386 39.3036 42.1462 40.4577 42.1462 40.9415H43.4632ZM46.0976 37.5367C48.205 37.5367 57.5123 37.5367 61.9025 37.5367V36.2196C57.5123 36.2196 48.205 36.2196 46.0976 36.2196L46.0976 37.5367ZM61.8094 37.5301C63.7864 37.8125 64.8659 39.3097 64.8659 40.8294H66.183C66.183 38.6613 64.6284 36.6023 61.9956 36.2263L61.8094 37.5301ZM64.8659 40.8294C64.8659 40.833 64.8659 40.8366 64.8659 40.8403C64.8659 40.844 64.8659 40.8477 64.8659 40.8514C64.8659 40.8552 64.8659 40.8589 64.8659 40.8627C64.8659 40.8666 64.8659 40.8704 64.8659 40.8743C64.8659 40.8782 64.8659 40.8821 64.8659 40.886C64.8659 40.89 64.8659 40.8939 64.8659 40.898C64.8659 40.902 64.8659 40.906 64.8659 40.9101C64.8659 40.9142 64.8659 40.9183 64.8659 40.9225C64.8659 40.9266 64.8659 40.9308 64.8659 40.935C64.8659 40.9393 64.8659 40.9435 64.8659 40.9478C64.8659 40.9521 64.8659 40.9564 64.8659 40.9608C64.8659 40.9651 64.8659 40.9695 64.8659 40.9739C64.8659 40.9784 64.8659 40.9828 64.8659 40.9873C64.8659 40.9918 64.8659 40.9963 64.8659 41.0009C64.8659 41.0054 64.8659 41.01 64.8659 41.0147C64.8659 41.0193 64.8659 41.0239 64.8659 41.0286C64.8659 41.0333 64.8659 41.038 64.8659 41.0428C64.8659 41.0476 64.8659 41.0524 64.8659 41.0572C64.8659 41.062 64.8659 41.0669 64.8659 41.0717C64.8659 41.0766 64.8659 41.0816 64.8659 41.0865C64.8659 41.0915 64.8659 41.0965 64.8659 41.1015C64.8659 41.1065 64.8659 41.1115 64.8659 41.1166C64.8659 41.1217 64.8659 41.1268 64.8659 41.132C64.8659 41.1371 64.8659 41.1423 64.8659 41.1475C64.8659 41.1527 64.8659 41.158 64.8659 41.1633C64.8659 41.1686 64.8659 41.1739 64.8659 41.1792C64.8659 41.1846 64.8659 41.1899 64.8659 41.1953C64.8659 41.2007 64.8659 41.2062 64.8659 41.2117C64.8659 41.2171 64.8659 41.2226 64.8659 41.2282C64.8659 41.2337 64.8659 41.2393 64.8659 41.2449C64.8659 41.2505 64.8659 41.2561 64.8659 41.2618C64.8659 41.2674 64.8659 41.2731 64.8659 41.2788C64.8659 41.2846 64.8659 41.2903 64.8659 41.2961C64.8659 41.3019 64.8659 41.3077 64.8659 41.3136C64.8659 41.3194 64.8659 41.3253 64.8659 41.3312C64.8659 41.3371 64.8659 41.3431 64.8659 41.349C64.8659 41.355 64.8659 41.361 64.8659 41.3671C64.8659 41.3731 64.8659 41.3792 64.8659 41.3853C64.8659 41.3914 64.8659 41.3975 64.8659 41.4037C64.8659 41.4098 64.8659 41.416 64.8659 41.4222C64.8659 41.4284 64.8659 41.4347 64.8659 41.441C64.8659 41.4473 64.8659 41.4536 64.8659 41.4599C64.8659 41.4663 64.8659 41.4726 64.8659 41.479C64.8659 41.4854 64.8659 41.4919 64.8659 41.4983C64.8659 41.5048 64.8659 41.5113 64.8659 41.5178C64.8659 41.5244 64.8659 41.5309 64.8659 41.5375C64.8659 41.5441 64.8659 41.5507 64.8659 41.5573C64.8659 41.564 64.8659 41.5707 64.8659 41.5774C64.8659 41.5841 64.8659 41.5908 64.8659 41.5976C64.8659 41.6043 64.8659 41.6111 64.8659 41.6179C64.8659 41.6248 64.8659 41.6316 64.8659 41.6385C64.8659 41.6454 64.8659 41.6523 64.8659 41.6592C64.8659 41.6662 64.8659 41.6731 64.8659 41.6801C64.8659 41.6871 64.8659 41.6942 64.8659 41.7012C64.8659 41.7083 64.8659 41.7153 64.8659 41.7225C64.8659 41.7296 64.8659 41.7367 64.8659 41.7439C64.8659 41.7511 64.8659 41.7583 64.8659 41.7655C64.8659 41.7727 64.8659 41.78 64.8659 41.7873C64.8659 41.7946 64.8659 41.8019 64.8659 41.8092C64.8659 41.8166 64.8659 41.8239 64.8659 41.8313C64.8659 41.8387 64.8659 41.8462 64.8659 41.8536C64.8659 41.8611 64.8659 41.8686 64.8659 41.8761C64.8659 41.8836 64.8659 41.8911 64.8659 41.8987C64.8659 41.9063 64.8659 41.9139 64.8659 41.9215C64.8659 41.9291 64.8659 41.9368 64.8659 41.9445C64.8659 41.9522 64.8659 41.9599 64.8659 41.9676C64.8659 41.9753 64.8659 41.9831 64.8659 41.9909C64.8659 41.9987 64.8659 42.0065 64.8659 42.0144C64.8659 42.0222 64.8659 42.0301 64.8659 42.038C64.8659 42.0459 64.8659 42.0538 64.8659 42.0618C64.8659 42.0697 64.8659 42.0777 64.8659 42.0857C64.8659 42.0938 64.8659 42.1018 64.8659 42.1099C64.8659 42.1179 64.8659 42.126 64.8659 42.1342C64.8659 42.1423 64.8659 42.1504 64.8659 42.1586C64.8659 42.1668 64.8659 42.175 64.8659 42.1832C64.8659 42.1914 64.8659 42.1997 64.8659 42.208C64.8659 42.2163 64.8659 42.2246 64.8659 42.2329C64.8659 42.2412 64.8659 42.2496 64.8659 42.258C64.8659 42.2664 64.8659 42.2748 64.8659 42.2832C64.8659 42.2917 64.8659 42.3001 64.8659 42.3086C64.8659 42.3171 64.8659 42.3257 64.8659 42.3342C64.8659 42.3427 64.8659 42.3513 64.8659 42.3599C64.8659 42.3685 64.8659 42.3771 64.8659 42.3858C64.8659 42.3944 64.8659 42.4031 64.8659 42.4118C64.8659 42.4205 64.8659 42.4293 64.8659 42.438C64.8659 42.4468 64.8659 42.4555 64.8659 42.4643C64.8659 42.4732 64.8659 42.482 64.8659 42.4908C64.8659 42.4997 64.8659 42.5086 64.8659 42.5175C64.8659 42.5264 64.8659 42.5353 64.8659 42.5443C64.8659 42.5532 64.8659 42.5622 64.8659 42.5712C64.8659 42.5802 64.8659 42.5893 64.8659 42.5983C64.8659 42.6074 64.8659 42.6165 64.8659 42.6256C64.8659 42.6347 64.8659 42.6438 64.8659 42.653C64.8659 42.6621 64.8659 42.6713 64.8659 42.6805C64.8659 42.6897 64.8659 42.699 64.8659 42.7082C64.8659 42.7175 64.8659 42.7268 64.8659 42.7361C64.8659 42.7454 64.8659 42.7547 64.8659 42.7641C64.8659 42.7734 64.8659 42.7828 64.8659 42.7922C64.8659 42.8016 64.8659 42.811 64.8659 42.8205C64.8659 42.8299 64.8659 42.8394 64.8659 42.8489C64.8659 42.8584 64.8659 42.8679 64.8659 42.8775C64.8659 42.887 64.8659 42.8966 64.8659 42.9062C64.8659 42.9158 64.8659 42.9254 64.8659 42.9351C64.8659 42.9447 64.8659 42.9544 64.8659 42.9641C64.8659 42.9738 64.8659 42.9835 64.8659 42.9932C64.8659 43.003 64.8659 43.0127 64.8659 43.0225C64.8659 43.0323 64.8659 43.0421 64.8659 43.0519C64.8659 43.0618 64.8659 43.0716 64.8659 43.0815C64.8659 43.0914 64.8659 43.1013 64.8659 43.1112C64.8659 43.1211 64.8659 43.1311 64.8659 43.1411C64.8659 43.151 64.8659 43.161 64.8659 43.171C64.8659 43.1811 64.8659 43.1911 64.8659 43.2012C64.8659 43.2112 64.8659 43.2213 64.8659 43.2314C64.8659 43.2415 64.8659 43.2517 64.8659 43.2618C64.8659 43.272 64.8659 43.2821 64.8659 43.2923C64.8659 43.3025 64.8659 43.3128 64.8659 43.323C64.8659 43.3332 64.8659 43.3435 64.8659 43.3538C64.8659 43.3641 64.8659 43.3744 64.8659 43.3847C64.8659 43.3951 64.8659 43.4054 64.8659 43.4158C64.8659 43.4262 64.8659 43.4366 64.8659 43.447C64.8659 43.4574 64.8659 43.4679 64.8659 43.4783C64.8659 43.4888 64.8659 43.4993 64.8659 43.5098C64.8659 43.5203 64.8659 43.5308 64.8659 43.5414C64.8659 43.5519 64.8659 43.5625 64.8659 43.5731C64.8659 43.5837 64.8659 43.5943 64.8659 43.6049C64.8659 43.6156 64.8659 43.6262 64.8659 43.6369C64.8659 43.6476 64.8659 43.6583 64.8659 43.669C64.8659 43.6797 64.8659 43.6905 64.8659 43.7012C64.8659 43.712 64.8659 43.7228 64.8659 43.7336C64.8659 43.7444 64.8659 43.7552 64.8659 43.7661C64.8659 43.7769 64.8659 43.7878 64.8659 43.7987C64.8659 43.8096 64.8659 43.8205 64.8659 43.8314C64.8659 43.8423 64.8659 43.8533 64.8659 43.8643C64.8659 43.8752 64.8659 43.8862 64.8659 43.8972C64.8659 43.9082 64.8659 43.9193 64.8659 43.9303C64.8659 43.9414 64.8659 43.9525 64.8659 43.9635C64.8659 43.9746 64.8659 43.9858 64.8659 43.9969C64.8659 44.008 64.8659 44.0192 64.8659 44.0303C64.8659 44.0415 64.8659 44.0527 64.8659 44.0639C64.8659 44.0751 64.8659 44.0864 64.8659 44.0976C64.8659 44.1089 64.8659 44.1202 64.8659 44.1314C64.8659 44.1427 64.8659 44.1541 64.8659 44.1654C64.8659 44.1767 64.8659 44.1881 64.8659 44.1994C64.8659 44.2108 64.8659 44.2222 64.8659 44.2336C64.8659 44.245 64.8659 44.2564 64.8659 44.2679C64.8659 44.2793 64.8659 44.2908 64.8659 44.3023C64.8659 44.3138 64.8659 44.3253 64.8659 44.3368C64.8659 44.3483 64.8659 44.3599 64.8659 44.3714C64.8659 44.383 64.8659 44.3946 64.8659 44.4062C64.8659 44.4178 64.8659 44.4294 64.8659 44.441C64.8659 44.4527 64.8659 44.4643 64.8659 44.476C64.8659 44.4877 64.8659 44.4994 64.8659 44.5111C64.8659 44.5228 64.8659 44.5345 64.8659 44.5463C64.8659 44.558 64.8659 44.5698 64.8659 44.5816C64.8659 44.5934 64.8659 44.6052 64.8659 44.617C64.8659 44.6288 64.8659 44.6406 64.8659 44.6525C64.8659 44.6644 64.8659 44.6762 64.8659 44.6881C64.8659 44.7 64.8659 44.7119 64.8659 44.7239C64.8659 44.7358 64.8659 44.7477 64.8659 44.7597C64.8659 44.7717 64.8659 44.7836 64.8659 44.7956C64.8659 44.8076 64.8659 44.8197 64.8659 44.8317C64.8659 44.8437 64.8659 44.8558 64.8659 44.8678C64.8659 44.8799 64.8659 44.892 64.8659 44.9041C64.8659 44.9162 64.8659 44.9283 64.8659 44.9405C64.8659 44.9526 64.8659 44.9648 64.8659 44.9769C64.8659 44.9891 64.8659 45.0013 64.8659 45.0135C64.8659 45.0257 64.8659 45.0379 64.8659 45.0502C64.8659 45.0624 64.8659 45.0747 64.8659 45.0869C64.8659 45.0992 64.8659 45.1115 64.8659 45.1238C64.8659 45.1361 64.8659 45.1484 64.8659 45.1608C64.8659 45.1731 64.8659 45.1855 64.8659 45.1979C64.8659 45.2102 64.8659 45.2226 64.8659 45.235C64.8659 45.2474 64.8659 45.2598 64.8659 45.2723C64.8659 45.2847 64.8659 45.2972 64.8659 45.3096C64.8659 45.3221 64.8659 45.3346 64.8659 45.3471C64.8659 45.3596 64.8659 45.3721 64.8659 45.3847C64.8659 45.3972 64.8659 45.4097 64.8659 45.4223C64.8659 45.4349 64.8659 45.4475 64.8659 45.4601C64.8659 45.4726 64.8659 45.4853 64.8659 45.4979C64.8659 45.5105 64.8659 45.5232 64.8659 45.5358C64.8659 45.5485 64.8659 45.5612 64.8659 45.5738C64.8659 45.5865 64.8659 45.5992 64.8659 45.612C64.8659 45.6247 64.8659 45.6374 64.8659 45.6502C64.8659 45.6629 64.8659 45.6757 64.8659 45.6885C64.8659 45.7012 64.8659 45.714 64.8659 45.7268C64.8659 45.7397 64.8659 45.7525 64.8659 45.7653C64.8659 45.7782 64.8659 45.791 64.8659 45.8039C64.8659 45.8167 64.8659 45.8296 64.8659 45.8425C64.8659 45.8554 64.8659 45.8683 64.8659 45.8813C64.8659 45.8942 64.8659 45.9071 64.8659 45.9201C64.8659 45.933 64.8659 45.946 64.8659 45.959C64.8659 45.972 64.8659 45.985 64.8659 45.998C64.8659 46.011 64.8659 46.024 64.8659 46.0371C64.8659 46.0501 64.8659 46.0632 64.8659 46.0762C64.8659 46.0893 64.8659 46.1024 64.8659 46.1155C64.8659 46.1286 64.8659 46.1417 64.8659 46.1548C64.8659 46.1679 64.8659 46.1811 64.8659 46.1942C64.8659 46.2074 64.8659 46.2206 64.8659 46.2337C64.8659 46.2469 64.8659 46.2601 64.8659 46.2733C64.8659 46.2865 64.8659 46.2997 64.8659 46.313C64.8659 46.3262 64.8659 46.3394 64.8659 46.3527C64.8659 46.3659 64.8659 46.3792 64.8659 46.3925C64.8659 46.4058 64.8659 46.4191 64.8659 46.4324C64.8659 46.4457 64.8659 46.459 64.8659 46.4724C64.8659 46.4857 64.8659 46.499 64.8659 46.5124C64.8659 46.5258 64.8659 46.5391 64.8659 46.5525C64.8659 46.5659 64.8659 46.5793 64.8659 46.5927C64.8659 46.6061 64.8659 46.6196 64.8659 46.633C64.8659 46.6464 64.8659 46.6599 64.8659 46.6733C64.8659 46.6868 64.8659 46.7003 64.8659 46.7138C64.8659 46.7272 64.8659 46.7407 64.8659 46.7543C64.8659 46.7678 64.8659 46.7813 64.8659 46.7948C64.8659 46.8084 64.8659 46.8219 64.8659 46.8355C64.8659 46.849 64.8659 46.8626 64.8659 46.8762C64.8659 46.8897 64.8659 46.9033 64.8659 46.9169C64.8659 46.9305 64.8659 46.9442 64.8659 46.9578C64.8659 46.9714 64.8659 46.985 64.8659 46.9987C64.8659 47.0123 64.8659 47.026 64.8659 47.0397C64.8659 47.0534 64.8659 47.067 64.8659 47.0807C64.8659 47.0944 64.8659 47.1081 64.8659 47.1219C64.8659 47.1356 64.8659 47.1493 64.8659 47.163C64.8659 47.1768 64.8659 47.1905 64.8659 47.2043C64.8659 47.218 64.8659 47.2318 64.8659 47.2456C64.8659 47.2594 64.8659 47.2732 64.8659 47.287C64.8659 47.3008 64.8659 47.3146 64.8659 47.3284C64.8659 47.3423 64.8659 47.3561 64.8659 47.3699C64.8659 47.3838 64.8659 47.3976 64.8659 47.4115C64.8659 47.4254 64.8659 47.4392 64.8659 47.4531C64.8659 47.467 64.8659 47.4809 64.8659 47.4948C64.8659 47.5087 64.8659 47.5227 64.8659 47.5366C64.8659 47.5505 64.8659 47.5644 64.8659 47.5784C64.8659 47.5923 64.8659 47.6063 64.8659 47.6203C64.8659 47.6342 64.8659 47.6482 64.8659 47.6622C64.8659 47.6762 64.8659 47.6902 64.8659 47.7042C64.8659 47.7182 64.8659 47.7322 64.8659 47.7462C64.8659 47.7603 64.8659 47.7743 64.8659 47.7883C64.8659 47.8024 64.8659 47.8164 64.8659 47.8305C64.8659 47.8446 64.8659 47.8586 64.8659 47.8727C64.8659 47.8868 64.8659 47.9009 64.8659 47.915C64.8659 47.9291 64.8659 47.9432 64.8659 47.9573C64.8659 47.9714 64.8659 47.9855 64.8659 47.9997C64.8659 48.0138 64.8659 48.028 64.8659 48.0421C64.8659 48.0563 64.8659 48.0704 64.8659 48.0846C64.8659 48.0988 64.8659 48.1129 64.8659 48.1271C64.8659 48.1413 64.8659 48.1555 64.8659 48.1697C64.8659 48.1839 64.8659 48.1981 64.8659 48.2123C64.8659 48.2266 64.8659 48.2408 64.8659 48.255C64.8659 48.2693 64.8659 48.2835 64.8659 48.2977C64.8659 48.312 64.8659 48.3263 64.8659 48.3405C64.8659 48.3548 64.8659 48.3691 64.8659 48.3834C64.8659 48.3976 64.8659 48.4119 64.8659 48.4262C64.8659 48.4405 64.8659 48.4548 64.8659 48.4691C64.8659 48.4835 64.8659 48.4978 64.8659 48.5121C64.8659 48.5264 64.8659 48.5408 64.8659 48.5551C64.8659 48.5695 64.8659 48.5838 64.8659 48.5982C64.8659 48.6125 64.8659 48.6269 64.8659 48.6413C64.8659 48.6556 64.8659 48.67 64.8659 48.6844C64.8659 48.6988 64.8659 48.7132 64.8659 48.7276C64.8659 48.742 64.8659 48.7564 64.8659 48.7708C64.8659 48.7852 64.8659 48.7997 64.8659 48.8141C64.8659 48.8285 64.8659 48.843 64.8659 48.8574C64.8659 48.8718 64.8659 48.8863 64.8659 48.9007C64.8659 48.9152 64.8659 48.9297 64.8659 48.9441C64.8659 48.9586 64.8659 48.9731 64.8659 48.9876C64.8659 49.002 64.8659 49.0165 64.8659 49.031C64.8659 49.0455 64.8659 49.06 64.8659 49.0745C64.8659 49.089 64.8659 49.1035 64.8659 49.118C64.8659 49.1326 64.8659 49.1471 64.8659 49.1616C64.8659 49.1761 64.8659 49.1907 64.8659 49.2052C64.8659 49.2198 64.8659 49.2343 64.8659 49.2489C64.8659 49.2634 64.8659 49.278 64.8659 49.2925C64.8659 49.3071 64.8659 49.3217 64.8659 49.3362C64.8659 49.3508 64.8659 49.3654 64.8659 49.38C64.8659 49.3946 64.8659 49.4092 64.8659 49.4238C64.8659 49.4384 64.8659 49.453 64.8659 49.4676C64.8659 49.4822 64.8659 49.4968 64.8659 49.5114C64.8659 49.526 64.8659 49.5406 64.8659 49.5553C64.8659 49.5699 64.8659 49.5845 64.8659 49.5992C64.8659 49.6138 64.8659 49.6284 64.8659 49.6431C64.8659 49.6577 64.8659 49.6724 64.8659 49.687C64.8659 49.7017 64.8659 49.7163 64.8659 49.731C64.8659 49.7457 64.8659 49.7603 64.8659 49.775C64.8659 49.7897 64.8659 49.8044 64.8659 49.819C64.8659 49.8337 64.8659 49.8484 64.8659 49.8631C64.8659 49.8778 64.8659 49.8925 64.8659 49.9072C64.8659 49.9219 64.8659 49.9366 64.8659 49.9513C64.8659 49.966 64.8659 49.9807 64.8659 49.9954C64.8659 50.0101 64.8659 50.0248 64.8659 50.0396C64.8659 50.0543 64.8659 50.069 64.8659 50.0837C64.8659 50.0985 64.8659 50.1132 64.8659 50.1279C64.8659 50.1427 64.8659 50.1574 64.8659 50.1721C64.8659 50.1869 64.8659 50.2016 64.8659 50.2164C64.8659 50.2311 64.8659 50.2459 64.8659 50.2606C64.8659 50.2754 64.8659 50.2901 64.8659 50.3049C64.8659 50.3197 64.8659 50.3344 64.8659 50.3492C64.8659 50.364 64.8659 50.3787 64.8659 50.3935C64.8659 50.4083 64.8659 50.423 64.8659 50.4378C64.8659 50.4526 64.8659 50.4674 64.8659 50.4822C64.8659 50.497 64.8659 50.5117 64.8659 50.5265C64.8659 50.5413 64.8659 50.5561 64.8659 50.5709C64.8659 50.5857 64.8659 50.6005 64.8659 50.6153C64.8659 50.6301 64.8659 50.6449 64.8659 50.6597C64.8659 50.6745 64.8659 50.6893 64.8659 50.7041C64.8659 50.7189 64.8659 50.7337 64.8659 50.7485C64.8659 50.7633 64.8659 50.7782 64.8659 50.793C64.8659 50.8078 64.8659 50.8226 64.8659 50.8374C64.8659 50.8522 64.8659 50.8671 64.8659 50.8819C64.8659 50.8967 64.8659 50.9115 64.8659 50.9263C64.8659 50.9412 64.8659 50.956 64.8659 50.9708C64.8659 50.9857 64.8659 51.0005 64.8659 51.0153C64.8659 51.0301 64.8659 51.045 64.8659 51.0598C64.8659 51.0746 64.8659 51.0895 64.8659 51.1043C64.8659 51.1191 64.8659 51.134 64.8659 51.1488C64.8659 51.1637 64.8659 51.1785 64.8659 51.1933C64.8659 51.2082 64.8659 51.223 64.8659 51.2378C64.8659 51.2527 64.8659 51.2675 64.8659 51.2824C64.8659 51.2972 64.8659 51.3121 64.8659 51.3269C64.8659 51.3417 64.8659 51.3566 64.8659 51.3714C64.8659 51.3863 64.8659 51.4011 64.8659 51.416C64.8659 51.4308 64.8659 51.4457 64.8659 51.4605C64.8659 51.4753 64.8659 51.4902 64.8659 51.505C64.8659 51.5199 64.8659 51.5347 64.8659 51.5496C64.8659 51.5644 64.8659 51.5793 64.8659 51.5941C64.8659 51.609 64.8659 51.6238 64.8659 51.6387C64.8659 51.6535 64.8659 51.6683 64.8659 51.6832C64.8659 51.698 64.8659 51.7129 64.8659 51.7277C64.8659 51.7426 64.8659 51.7574 64.8659 51.7723C64.8659 51.7871 64.8659 51.8019 64.8659 51.8168C64.8659 51.8316 64.8659 51.8465 64.8659 51.8613C64.8659 51.8761 64.8659 51.891 64.8659 51.9058C64.8659 51.9207 64.8659 51.9355 64.8659 51.9503C64.8659 51.9652 64.8659 51.98 64.8659 51.9949C64.8659 52.0097 64.8659 52.0245 64.8659 52.0394C64.8659 52.0542 64.8659 52.069 64.8659 52.0838C64.8659 52.0987 64.8659 52.1135 64.8659 52.1283C64.8659 52.1432 64.8659 52.158 64.8659 52.1728C64.8659 52.1876 64.8659 52.2025 64.8659 52.2173C64.8659 52.2321 64.8659 52.2469 64.8659 52.2617C64.8659 52.2766 64.8659 52.2914 64.8659 52.3062C64.8659 52.321 64.8659 52.3358 64.8659 52.3506C64.8659 52.3654 64.8659 52.3803 64.8659 52.3951C64.8659 52.4099 64.8659 52.4247 64.8659 52.4395C64.8659 52.4543 64.8659 52.4691 64.8659 52.4839C64.8659 52.4987 64.8659 52.5135 64.8659 52.5283C64.8659 52.5431 64.8659 52.5579 64.8659 52.5726C64.8659 52.5874 64.8659 52.6022 64.8659 52.617C64.8659 52.6318 64.8659 52.6466 64.8659 52.6613C64.8659 52.6761 64.8659 52.6909 64.8659 52.7057C64.8659 52.7204 64.8659 52.7352 64.8659 52.75C64.8659 52.7647 64.8659 52.7795 64.8659 52.7943C64.8659 52.809 64.8659 52.8238 64.8659 52.8385C64.8659 52.8533 64.8659 52.8681 64.8659 52.8828C64.8659 52.8976 64.8659 52.9123 64.8659 52.927C64.8659 52.9418 64.8659 52.9565 64.8659 52.9713C64.8659 52.986 64.8659 53.0007 64.8659 53.0154C64.8659 53.0302 64.8659 53.0449 64.8659 53.0596C64.8659 53.0743 64.8659 53.0891 64.8659 53.1038C64.8659 53.1185 64.8659 53.1332 64.8659 53.1479C64.8659 53.1626 64.8659 53.1773 64.8659 53.192C64.8659 53.2067 64.8659 53.2214 64.8659 53.2361C64.8659 53.2508 64.8659 53.2655 64.8659 53.2801C64.8659 53.2948 64.8659 53.3095 64.8659 53.3242C64.8659 53.3389 64.8659 53.3535 64.8659 53.3682C64.8659 53.3828 64.8659 53.3975 64.8659 53.4122C64.8659 53.4268 64.8659 53.4415 64.8659 53.4561C64.8659 53.4708 64.8659 53.4854 64.8659 53.5C64.8659 53.5147 64.8659 53.5293 64.8659 53.5439C64.8659 53.5586 64.8659 53.5732 64.8659 53.5878C64.8659 53.6024 64.8659 53.617 64.8659 53.6316C64.8659 53.6462 64.8659 53.6608 64.8659 53.6754C64.8659 53.69 64.8659 53.7046 64.8659 53.7192C64.8659 53.7338 64.8659 53.7484 64.8659 53.763C64.8659 53.7775 64.8659 53.7921 64.8659 53.8067C64.8659 53.8212 64.8659 53.8358 64.8659 53.8503C64.8659 53.8649 64.8659 53.8794 64.8659 53.894C64.8659 53.9085 64.8659 53.9231 64.8659 53.9376C64.8659 53.9521 64.8659 53.9666 64.8659 53.9812C64.8659 53.9957 64.8659 54.0102 64.8659 54.0247C64.8659 54.0392 64.8659 54.0537 64.8659 54.0682C64.8659 54.0827 64.8659 54.0972 64.8659 54.1117C64.8659 54.1261 64.8659 54.1406 64.8659 54.1551C64.8659 54.1696 64.8659 54.184 64.8659 54.1985C64.8659 54.2129 64.8659 54.2274 64.8659 54.2418C64.8659 54.2563 64.8659 54.2707 64.8659 54.2851C64.8659 54.2996 64.8659 54.314 64.8659 54.3284C64.8659 54.3428 64.8659 54.3572 64.8659 54.3716C64.8659 54.386 64.8659 54.4004 64.8659 54.4148C64.8659 54.4292 64.8659 54.4436 64.8659 54.458C64.8659 54.4723 64.8659 54.4867 64.8659 54.5011C64.8659 54.5154 64.8659 54.5298 64.8659 54.5441C64.8659 54.5585 64.8659 54.5728 64.8659 54.5871C64.8659 54.6015 64.8659 54.6158 64.8659 54.6301C64.8659 54.6444 64.8659 54.6587 64.8659 54.673C64.8659 54.6873 64.8659 54.7016 64.8659 54.7159C64.8659 54.7302 64.8659 54.7445 64.8659 54.7587C64.8659 54.773 64.8659 54.7873 64.8659 54.8015C64.8659 54.8158 64.8659 54.83 64.8659 54.8442C64.8659 54.8585 64.8659 54.8727 64.8659 54.8869C64.8659 54.9011 64.8659 54.9154 64.8659 54.9296C64.8659 54.9438 64.8659 54.958 64.8659 54.9721C64.8659 54.9863 64.8659 55.0005 64.8659 55.0147C64.8659 55.0289 64.8659 55.043 64.8659 55.0572C64.8659 55.0713 64.8659 55.0855 64.8659 55.0996C64.8659 55.1137 64.8659 55.1279 64.8659 55.142C64.8659 55.1561 64.8659 55.1702 64.8659 55.1843C64.8659 55.1984 64.8659 55.2125 64.8659 55.2266C64.8659 55.2407 64.8659 55.2547 64.8659 55.2688C64.8659 55.2829 64.8659 55.2969 64.8659 55.311C64.8659 55.325 64.8659 55.339 64.8659 55.3531C64.8659 55.3671 64.8659 55.3811 64.8659 55.3951C64.8659 55.4091 64.8659 55.4231 64.8659 55.4371C64.8659 55.4511 64.8659 55.4651 64.8659 55.479C64.8659 55.493 64.8659 55.507 64.8659 55.5209C64.8659 55.5349 64.8659 55.5488 64.8659 55.5627C64.8659 55.5767 64.8659 55.5906 64.8659 55.6045C64.8659 55.6184 64.8659 55.6323 64.8659 55.6462C64.8659 55.6601 64.8659 55.6739 64.8659 55.6878C64.8659 55.7017 64.8659 55.7155 64.8659 55.7294C64.8659 55.7432 64.8659 55.7571 64.8659 55.7709C64.8659 55.7847 64.8659 55.7985 64.8659 55.8123C64.8659 55.8261 64.8659 55.8399 64.8659 55.8537C64.8659 55.8675 64.8659 55.8813 64.8659 55.895C64.8659 55.9088 64.8659 55.9226 64.8659 55.9363C64.8659 55.95 64.8659 55.9638 64.8659 55.9775C64.8659 55.9912 64.8659 56.0049 64.8659 56.0186C64.8659 56.0323 64.8659 56.046 64.8659 56.0597C64.8659 56.0733 64.8659 56.087 64.8659 56.1007C64.8659 56.1143 64.8659 56.1279 64.8659 56.1416C64.8659 56.1552 64.8659 56.1688 64.8659 56.1824C64.8659 56.196 64.8659 56.2096 64.8659 56.2232C64.8659 56.2368 64.8659 56.2504 64.8659 56.2639C64.8659 56.2775 64.8659 56.291 64.8659 56.3046C64.8659 56.3181 64.8659 56.3316 64.8659 56.3451C64.8659 56.3586 64.8659 56.3721 64.8659 56.3856C64.8659 56.3991 64.8659 56.4126 64.8659 56.426C64.8659 56.4395 64.8659 56.453 64.8659 56.4664C64.8659 56.4798 64.8659 56.4933 64.8659 56.5067C64.8659 56.5201 64.8659 56.5335 64.8659 56.5469C64.8659 56.5603 64.8659 56.5736 64.8659 56.587C64.8659 56.6004 64.8659 56.6137 64.8659 56.627C64.8659 56.6404 64.8659 56.6537 64.8659 56.667C64.8659 56.6803 64.8659 56.6936 64.8659 56.7069C64.8659 56.7202 64.8659 56.7335 64.8659 56.7467C64.8659 56.76 64.8659 56.7732 64.8659 56.7865C64.8659 56.7997 64.8659 56.8129 64.8659 56.8261C64.8659 56.8393 64.8659 56.8525 64.8659 56.8657C64.8659 56.8789 64.8659 56.892 64.8659 56.9052C64.8659 56.9184 64.8659 56.9315 64.8659 56.9446C64.8659 56.9577 64.8659 56.9709 64.8659 56.984C64.8659 56.997 64.8659 57.0101 64.8659 57.0232C64.8659 57.0363 64.8659 57.0493 64.8659 57.0624C64.8659 57.0754 64.8659 57.0884 64.8659 57.1015C64.8659 57.1145 64.8659 57.1275 64.8659 57.1405C64.8659 57.1534 64.8659 57.1664 64.8659 57.1794C64.8659 57.1923 64.8659 57.2053 64.8659 57.2182C64.8659 57.2311 64.8659 57.244 64.8659 57.2569C64.8659 57.2698 64.8659 57.2827 64.8659 57.2956C64.8659 57.3085 64.8659 57.3213 64.8659 57.3342C64.8659 57.347 64.8659 57.3598 64.8659 57.3726C64.8659 57.3855 64.8659 57.3983 64.8659 57.411C64.8659 57.4238 64.8659 57.4366 64.8659 57.4493C64.8659 57.4621 64.8659 57.4748 64.8659 57.4875C64.8659 57.5003 64.8659 57.513 64.8659 57.5257C64.8659 57.5384 64.8659 57.551 64.8659 57.5637C64.8659 57.5764 64.8659 57.589 64.8659 57.6016C64.8659 57.6143 64.8659 57.6269 64.8659 57.6395C64.8659 57.6521 64.8659 57.6647 64.8659 57.6772C64.8659 57.6898 64.8659 57.7023 64.8659 57.7149C64.8659 57.7274 64.8659 57.7399 64.8659 57.7524C64.8659 57.7649 64.8659 57.7774 64.8659 57.7899C64.8659 57.8024 64.8659 57.8148 64.8659 57.8273C64.8659 57.8397 64.8659 57.8521 64.8659 57.8645C64.8659 57.8769 64.8659 57.8893 64.8659 57.9017C64.8659 57.9141 64.8659 57.9264 64.8659 57.9388C64.8659 57.9511 64.8659 57.9634 64.8659 57.9758C64.8659 57.9881 64.8659 58.0004 64.8659 58.0126C64.8659 58.0249 64.8659 58.0372 64.8659 58.0494C64.8659 58.0617 64.8659 58.0739 64.8659 58.0861C64.8659 58.0983 64.8659 58.1105 64.8659 58.1227C64.8659 58.1348 64.8659 58.147 64.8659 58.1591C64.8659 58.1713 64.8659 58.1834 64.8659 58.1955C64.8659 58.2076 64.8659 58.2197 64.8659 58.2318C64.8659 58.2438 64.8659 58.2559 64.8659 58.2679C64.8659 58.28 64.8659 58.292 64.8659 58.304C64.8659 58.316 64.8659 58.328 64.8659 58.3399C64.8659 58.3519 64.8659 58.3638 64.8659 58.3758C64.8659 58.3877 64.8659 58.3996 64.8659 58.4115C64.8659 58.4234 64.8659 58.4353 64.8659 58.4471C64.8659 58.459 64.8659 58.4708 64.8659 58.4827C64.8659 58.4945 64.8659 58.5063 64.8659 58.5181C64.8659 58.5299 64.8659 58.5416 64.8659 58.5534C64.8659 58.5651 64.8659 58.5769 64.8659 58.5886C64.8659 58.6003 64.8659 58.612 64.8659 58.6237C64.8659 58.6353 64.8659 58.647 64.8659 58.6586C64.8659 58.6703 64.8659 58.6819 64.8659 58.6935C64.8659 58.7051 64.8659 58.7167 64.8659 58.7283C64.8659 58.7398 64.8659 58.7514 64.8659 58.7629C64.8659 58.7744 64.8659 58.7859 64.8659 58.7974C64.8659 58.8089 64.8659 58.8204 64.8659 58.8318C64.8659 58.8433 64.8659 58.8547 64.8659 58.8661C64.8659 58.8775 64.8659 58.8889 64.8659 58.9003C64.8659 58.9117 64.8659 58.923 64.8659 58.9343C64.8659 58.9457 64.8659 58.957 64.8659 58.9683C64.8659 58.9796 64.8659 58.9909 64.8659 59.0021C64.8659 59.0134 64.8659 59.0246 64.8659 59.0358C64.8659 59.047 64.8659 59.0582 64.8659 59.0694C64.8659 59.0806 64.8659 59.0917 64.8659 59.1029C64.8659 59.114 64.8659 59.1251 64.8659 59.1362C64.8659 59.1473 64.8659 59.1584 64.8659 59.1695C64.8659 59.1805 64.8659 59.1915 64.8659 59.2026C64.8659 59.2136 64.8659 59.2246 64.8659 59.2355C64.8659 59.2465 64.8659 59.2575 64.8659 59.2684H66.183C66.183 59.2575 66.183 59.2465 66.183 59.2355C66.183 59.2246 66.183 59.2136 66.183 59.2026C66.183 59.1915 66.183 59.1805 66.183 59.1695C66.183 59.1584 66.183 59.1473 66.183 59.1362C66.183 59.1251 66.183 59.114 66.183 59.1029C66.183 59.0917 66.183 59.0806 66.183 59.0694C66.183 59.0582 66.183 59.047 66.183 59.0358C66.183 59.0246 66.183 59.0134 66.183 59.0021C66.183 58.9909 66.183 58.9796 66.183 58.9683C66.183 58.957 66.183 58.9457 66.183 58.9343C66.183 58.923 66.183 58.9117 66.183 58.9003C66.183 58.8889 66.183 58.8775 66.183 58.8661C66.183 58.8547 66.183 58.8433 66.183 58.8318C66.183 58.8204 66.183 58.8089 66.183 58.7974C66.183 58.7859 66.183 58.7744 66.183 58.7629C66.183 58.7514 66.183 58.7398 66.183 58.7283C66.183 58.7167 66.183 58.7051 66.183 58.6935C66.183 58.6819 66.183 58.6703 66.183 58.6586C66.183 58.647 66.183 58.6353 66.183 58.6237C66.183 58.612 66.183 58.6003 66.183 58.5886C66.183 58.5769 66.183 58.5651 66.183 58.5534C66.183 58.5416 66.183 58.5299 66.183 58.5181C66.183 58.5063 66.183 58.4945 66.183 58.4827C66.183 58.4708 66.183 58.459 66.183 58.4471C66.183 58.4353 66.183 58.4234 66.183 58.4115C66.183 58.3996 66.183 58.3877 66.183 58.3758C66.183 58.3638 66.183 58.3519 66.183 58.3399C66.183 58.328 66.183 58.316 66.183 58.304C66.183 58.292 66.183 58.28 66.183 58.2679C66.183 58.2559 66.183 58.2438 66.183 58.2318C66.183 58.2197 66.183 58.2076 66.183 58.1955C66.183 58.1834 66.183 58.1713 66.183 58.1591C66.183 58.147 66.183 58.1348 66.183 58.1227C66.183 58.1105 66.183 58.0983 66.183 58.0861C66.183 58.0739 66.183 58.0617 66.183 58.0494C66.183 58.0372 66.183 58.0249 66.183 58.0126C66.183 58.0004 66.183 57.9881 66.183 57.9758C66.183 57.9634 66.183 57.9511 66.183 57.9388C66.183 57.9264 66.183 57.9141 66.183 57.9017C66.183 57.8893 66.183 57.8769 66.183 57.8645C66.183 57.8521 66.183 57.8397 66.183 57.8273C66.183 57.8148 66.183 57.8024 66.183 57.7899C66.183 57.7774 66.183 57.7649 66.183 57.7524C66.183 57.7399 66.183 57.7274 66.183 57.7149C66.183 57.7023 66.183 57.6898 66.183 57.6772C66.183 57.6647 66.183 57.6521 66.183 57.6395C66.183 57.6269 66.183 57.6143 66.183 57.6016C66.183 57.589 66.183 57.5764 66.183 57.5637C66.183 57.551 66.183 57.5384 66.183 57.5257C66.183 57.513 66.183 57.5003 66.183 57.4875C66.183 57.4748 66.183 57.4621 66.183 57.4493C66.183 57.4366 66.183 57.4238 66.183 57.411C66.183 57.3983 66.183 57.3855 66.183 57.3726C66.183 57.3598 66.183 57.347 66.183 57.3342C66.183 57.3213 66.183 57.3085 66.183 57.2956C66.183 57.2827 66.183 57.2698 66.183 57.2569C66.183 57.244 66.183 57.2311 66.183 57.2182C66.183 57.2053 66.183 57.1923 66.183 57.1794C66.183 57.1664 66.183 57.1534 66.183 57.1405C66.183 57.1275 66.183 57.1145 66.183 57.1015C66.183 57.0884 66.183 57.0754 66.183 57.0624C66.183 57.0493 66.183 57.0363 66.183 57.0232C66.183 57.0101 66.183 56.997 66.183 56.984C66.183 56.9709 66.183 56.9577 66.183 56.9446C66.183 56.9315 66.183 56.9184 66.183 56.9052C66.183 56.892 66.183 56.8789 66.183 56.8657C66.183 56.8525 66.183 56.8393 66.183 56.8261C66.183 56.8129 66.183 56.7997 66.183 56.7865C66.183 56.7732 66.183 56.76 66.183 56.7467C66.183 56.7335 66.183 56.7202 66.183 56.7069C66.183 56.6936 66.183 56.6803 66.183 56.667C66.183 56.6537 66.183 56.6404 66.183 56.627C66.183 56.6137 66.183 56.6004 66.183 56.587C66.183 56.5736 66.183 56.5603 66.183 56.5469C66.183 56.5335 66.183 56.5201 66.183 56.5067C66.183 56.4933 66.183 56.4798 66.183 56.4664C66.183 56.453 66.183 56.4395 66.183 56.426C66.183 56.4126 66.183 56.3991 66.183 56.3856C66.183 56.3721 66.183 56.3586 66.183 56.3451C66.183 56.3316 66.183 56.3181 66.183 56.3046C66.183 56.291 66.183 56.2775 66.183 56.2639C66.183 56.2504 66.183 56.2368 66.183 56.2232C66.183 56.2096 66.183 56.196 66.183 56.1824C66.183 56.1688 66.183 56.1552 66.183 56.1416C66.183 56.1279 66.183 56.1143 66.183 56.1007C66.183 56.087 66.183 56.0733 66.183 56.0597C66.183 56.046 66.183 56.0323 66.183 56.0186C66.183 56.0049 66.183 55.9912 66.183 55.9775C66.183 55.9638 66.183 55.95 66.183 55.9363C66.183 55.9226 66.183 55.9088 66.183 55.895C66.183 55.8813 66.183 55.8675 66.183 55.8537C66.183 55.8399 66.183 55.8261 66.183 55.8123C66.183 55.7985 66.183 55.7847 66.183 55.7709C66.183 55.7571 66.183 55.7432 66.183 55.7294C66.183 55.7155 66.183 55.7017 66.183 55.6878C66.183 55.6739 66.183 55.6601 66.183 55.6462C66.183 55.6323 66.183 55.6184 66.183 55.6045C66.183 55.5906 66.183 55.5767 66.183 55.5627C66.183 55.5488 66.183 55.5349 66.183 55.5209C66.183 55.507 66.183 55.493 66.183 55.479C66.183 55.4651 66.183 55.4511 66.183 55.4371C66.183 55.4231 66.183 55.4091 66.183 55.3951C66.183 55.3811 66.183 55.3671 66.183 55.3531C66.183 55.339 66.183 55.325 66.183 55.311C66.183 55.2969 66.183 55.2829 66.183 55.2688C66.183 55.2547 66.183 55.2407 66.183 55.2266C66.183 55.2125 66.183 55.1984 66.183 55.1843C66.183 55.1702 66.183 55.1561 66.183 55.142C66.183 55.1279 66.183 55.1137 66.183 55.0996C66.183 55.0855 66.183 55.0713 66.183 55.0572C66.183 55.043 66.183 55.0289 66.183 55.0147C66.183 55.0005 66.183 54.9863 66.183 54.9721C66.183 54.958 66.183 54.9438 66.183 54.9296C66.183 54.9154 66.183 54.9011 66.183 54.8869C66.183 54.8727 66.183 54.8585 66.183 54.8442C66.183 54.83 66.183 54.8158 66.183 54.8015C66.183 54.7873 66.183 54.773 66.183 54.7587C66.183 54.7445 66.183 54.7302 66.183 54.7159C66.183 54.7016 66.183 54.6873 66.183 54.673C66.183 54.6587 66.183 54.6444 66.183 54.6301C66.183 54.6158 66.183 54.6015 66.183 54.5871C66.183 54.5728 66.183 54.5585 66.183 54.5441C66.183 54.5298 66.183 54.5154 66.183 54.5011C66.183 54.4867 66.183 54.4723 66.183 54.458C66.183 54.4436 66.183 54.4292 66.183 54.4148C66.183 54.4004 66.183 54.386 66.183 54.3716C66.183 54.3572 66.183 54.3428 66.183 54.3284C66.183 54.314 66.183 54.2996 66.183 54.2851C66.183 54.2707 66.183 54.2563 66.183 54.2418C66.183 54.2274 66.183 54.2129 66.183 54.1985C66.183 54.184 66.183 54.1696 66.183 54.1551C66.183 54.1406 66.183 54.1261 66.183 54.1117C66.183 54.0972 66.183 54.0827 66.183 54.0682C66.183 54.0537 66.183 54.0392 66.183 54.0247C66.183 54.0102 66.183 53.9957 66.183 53.9812C66.183 53.9666 66.183 53.9521 66.183 53.9376C66.183 53.9231 66.183 53.9085 66.183 53.894C66.183 53.8794 66.183 53.8649 66.183 53.8503C66.183 53.8358 66.183 53.8212 66.183 53.8067C66.183 53.7921 66.183 53.7775 66.183 53.763C66.183 53.7484 66.183 53.7338 66.183 53.7192C66.183 53.7046 66.183 53.69 66.183 53.6754C66.183 53.6608 66.183 53.6462 66.183 53.6316C66.183 53.617 66.183 53.6024 66.183 53.5878C66.183 53.5732 66.183 53.5586 66.183 53.5439C66.183 53.5293 66.183 53.5147 66.183 53.5C66.183 53.4854 66.183 53.4708 66.183 53.4561C66.183 53.4415 66.183 53.4268 66.183 53.4122C66.183 53.3975 66.183 53.3828 66.183 53.3682C66.183 53.3535 66.183 53.3389 66.183 53.3242C66.183 53.3095 66.183 53.2948 66.183 53.2801C66.183 53.2655 66.183 53.2508 66.183 53.2361C66.183 53.2214 66.183 53.2067 66.183 53.192C66.183 53.1773 66.183 53.1626 66.183 53.1479C66.183 53.1332 66.183 53.1185 66.183 53.1038C66.183 53.0891 66.183 53.0743 66.183 53.0596C66.183 53.0449 66.183 53.0302 66.183 53.0154C66.183 53.0007 66.183 52.986 66.183 52.9713C66.183 52.9565 66.183 52.9418 66.183 52.927C66.183 52.9123 66.183 52.8976 66.183 52.8828C66.183 52.8681 66.183 52.8533 66.183 52.8385C66.183 52.8238 66.183 52.809 66.183 52.7943C66.183 52.7795 66.183 52.7647 66.183 52.75C66.183 52.7352 66.183 52.7204 66.183 52.7057C66.183 52.6909 66.183 52.6761 66.183 52.6613C66.183 52.6466 66.183 52.6318 66.183 52.617C66.183 52.6022 66.183 52.5874 66.183 52.5726C66.183 52.5579 66.183 52.5431 66.183 52.5283C66.183 52.5135 66.183 52.4987 66.183 52.4839C66.183 52.4691 66.183 52.4543 66.183 52.4395C66.183 52.4247 66.183 52.4099 66.183 52.3951C66.183 52.3803 66.183 52.3654 66.183 52.3506C66.183 52.3358 66.183 52.321 66.183 52.3062C66.183 52.2914 66.183 52.2766 66.183 52.2617C66.183 52.2469 66.183 52.2321 66.183 52.2173C66.183 52.2025 66.183 52.1876 66.183 52.1728C66.183 52.158 66.183 52.1432 66.183 52.1283C66.183 52.1135 66.183 52.0987 66.183 52.0838C66.183 52.069 66.183 52.0542 66.183 52.0394C66.183 52.0245 66.183 52.0097 66.183 51.9949C66.183 51.98 66.183 51.9652 66.183 51.9503C66.183 51.9355 66.183 51.9207 66.183 51.9058C66.183 51.891 66.183 51.8761 66.183 51.8613C66.183 51.8465 66.183 51.8316 66.183 51.8168C66.183 51.8019 66.183 51.7871 66.183 51.7723C66.183 51.7574 66.183 51.7426 66.183 51.7277C66.183 51.7129 66.183 51.698 66.183 51.6832C66.183 51.6683 66.183 51.6535 66.183 51.6387C66.183 51.6238 66.183 51.609 66.183 51.5941C66.183 51.5793 66.183 51.5644 66.183 51.5496C66.183 51.5347 66.183 51.5199 66.183 51.505C66.183 51.4902 66.183 51.4753 66.183 51.4605C66.183 51.4457 66.183 51.4308 66.183 51.416C66.183 51.4011 66.183 51.3863 66.183 51.3714C66.183 51.3566 66.183 51.3417 66.183 51.3269C66.183 51.3121 66.183 51.2972 66.183 51.2824C66.183 51.2675 66.183 51.2527 66.183 51.2378C66.183 51.223 66.183 51.2082 66.183 51.1933C66.183 51.1785 66.183 51.1637 66.183 51.1488C66.183 51.134 66.183 51.1191 66.183 51.1043C66.183 51.0895 66.183 51.0746 66.183 51.0598C66.183 51.045 66.183 51.0301 66.183 51.0153C66.183 51.0005 66.183 50.9857 66.183 50.9708C66.183 50.956 66.183 50.9412 66.183 50.9263C66.183 50.9115 66.183 50.8967 66.183 50.8819C66.183 50.8671 66.183 50.8522 66.183 50.8374C66.183 50.8226 66.183 50.8078 66.183 50.793C66.183 50.7782 66.183 50.7633 66.183 50.7485C66.183 50.7337 66.183 50.7189 66.183 50.7041C66.183 50.6893 66.183 50.6745 66.183 50.6597C66.183 50.6449 66.183 50.6301 66.183 50.6153C66.183 50.6005 66.183 50.5857 66.183 50.5709C66.183 50.5561 66.183 50.5413 66.183 50.5265C66.183 50.5117 66.183 50.497 66.183 50.4822C66.183 50.4674 66.183 50.4526 66.183 50.4378C66.183 50.423 66.183 50.4083 66.183 50.3935C66.183 50.3787 66.183 50.364 66.183 50.3492C66.183 50.3344 66.183 50.3197 66.183 50.3049C66.183 50.2901 66.183 50.2754 66.183 50.2606C66.183 50.2459 66.183 50.2311 66.183 50.2164C66.183 50.2016 66.183 50.1869 66.183 50.1721C66.183 50.1574 66.183 50.1427 66.183 50.1279C66.183 50.1132 66.183 50.0985 66.183 50.0837C66.183 50.069 66.183 50.0543 66.183 50.0396C66.183 50.0248 66.183 50.0101 66.183 49.9954C66.183 49.9807 66.183 49.966 66.183 49.9513C66.183 49.9366 66.183 49.9219 66.183 49.9072C66.183 49.8925 66.183 49.8778 66.183 49.8631C66.183 49.8484 66.183 49.8337 66.183 49.819C66.183 49.8044 66.183 49.7897 66.183 49.775C66.183 49.7603 66.183 49.7457 66.183 49.731C66.183 49.7163 66.183 49.7017 66.183 49.687C66.183 49.6724 66.183 49.6577 66.183 49.6431C66.183 49.6284 66.183 49.6138 66.183 49.5992C66.183 49.5845 66.183 49.5699 66.183 49.5553C66.183 49.5406 66.183 49.526 66.183 49.5114C66.183 49.4968 66.183 49.4822 66.183 49.4676C66.183 49.453 66.183 49.4384 66.183 49.4238C66.183 49.4092 66.183 49.3946 66.183 49.38C66.183 49.3654 66.183 49.3508 66.183 49.3362C66.183 49.3217 66.183 49.3071 66.183 49.2925C66.183 49.278 66.183 49.2634 66.183 49.2489C66.183 49.2343 66.183 49.2198 66.183 49.2052C66.183 49.1907 66.183 49.1761 66.183 49.1616C66.183 49.1471 66.183 49.1326 66.183 49.118C66.183 49.1035 66.183 49.089 66.183 49.0745C66.183 49.06 66.183 49.0455 66.183 49.031C66.183 49.0165 66.183 49.002 66.183 48.9876C66.183 48.9731 66.183 48.9586 66.183 48.9441C66.183 48.9297 66.183 48.9152 66.183 48.9007C66.183 48.8863 66.183 48.8718 66.183 48.8574C66.183 48.843 66.183 48.8285 66.183 48.8141C66.183 48.7997 66.183 48.7852 66.183 48.7708C66.183 48.7564 66.183 48.742 66.183 48.7276C66.183 48.7132 66.183 48.6988 66.183 48.6844C66.183 48.67 66.183 48.6556 66.183 48.6413C66.183 48.6269 66.183 48.6125 66.183 48.5982C66.183 48.5838 66.183 48.5695 66.183 48.5551C66.183 48.5408 66.183 48.5264 66.183 48.5121C66.183 48.4978 66.183 48.4835 66.183 48.4691C66.183 48.4548 66.183 48.4405 66.183 48.4262C66.183 48.4119 66.183 48.3976 66.183 48.3834C66.183 48.3691 66.183 48.3548 66.183 48.3405C66.183 48.3263 66.183 48.312 66.183 48.2977C66.183 48.2835 66.183 48.2693 66.183 48.255C66.183 48.2408 66.183 48.2266 66.183 48.2123C66.183 48.1981 66.183 48.1839 66.183 48.1697C66.183 48.1555 66.183 48.1413 66.183 48.1271C66.183 48.1129 66.183 48.0988 66.183 48.0846C66.183 48.0704 66.183 48.0563 66.183 48.0421C66.183 48.028 66.183 48.0138 66.183 47.9997C66.183 47.9855 66.183 47.9714 66.183 47.9573C66.183 47.9432 66.183 47.9291 66.183 47.915C66.183 47.9009 66.183 47.8868 66.183 47.8727C66.183 47.8586 66.183 47.8446 66.183 47.8305C66.183 47.8164 66.183 47.8024 66.183 47.7883C66.183 47.7743 66.183 47.7603 66.183 47.7462C66.183 47.7322 66.183 47.7182 66.183 47.7042C66.183 47.6902 66.183 47.6762 66.183 47.6622C66.183 47.6482 66.183 47.6342 66.183 47.6203C66.183 47.6063 66.183 47.5923 66.183 47.5784C66.183 47.5644 66.183 47.5505 66.183 47.5366C66.183 47.5227 66.183 47.5087 66.183 47.4948C66.183 47.4809 66.183 47.467 66.183 47.4531C66.183 47.4392 66.183 47.4254 66.183 47.4115C66.183 47.3976 66.183 47.3838 66.183 47.3699C66.183 47.3561 66.183 47.3423 66.183 47.3284C66.183 47.3146 66.183 47.3008 66.183 47.287C66.183 47.2732 66.183 47.2594 66.183 47.2456C66.183 47.2318 66.183 47.218 66.183 47.2043C66.183 47.1905 66.183 47.1768 66.183 47.163C66.183 47.1493 66.183 47.1356 66.183 47.1219C66.183 47.1081 66.183 47.0944 66.183 47.0807C66.183 47.067 66.183 47.0534 66.183 47.0397C66.183 47.026 66.183 47.0123 66.183 46.9987C66.183 46.985 66.183 46.9714 66.183 46.9578C66.183 46.9442 66.183 46.9305 66.183 46.9169C66.183 46.9033 66.183 46.8897 66.183 46.8762C66.183 46.8626 66.183 46.849 66.183 46.8355C66.183 46.8219 66.183 46.8084 66.183 46.7948C66.183 46.7813 66.183 46.7678 66.183 46.7543C66.183 46.7407 66.183 46.7272 66.183 46.7138C66.183 46.7003 66.183 46.6868 66.183 46.6733C66.183 46.6599 66.183 46.6464 66.183 46.633C66.183 46.6196 66.183 46.6061 66.183 46.5927C66.183 46.5793 66.183 46.5659 66.183 46.5525C66.183 46.5391 66.183 46.5258 66.183 46.5124C66.183 46.499 66.183 46.4857 66.183 46.4724C66.183 46.459 66.183 46.4457 66.183 46.4324C66.183 46.4191 66.183 46.4058 66.183 46.3925C66.183 46.3792 66.183 46.3659 66.183 46.3527C66.183 46.3394 66.183 46.3262 66.183 46.313C66.183 46.2997 66.183 46.2865 66.183 46.2733C66.183 46.2601 66.183 46.2469 66.183 46.2337C66.183 46.2206 66.183 46.2074 66.183 46.1942C66.183 46.1811 66.183 46.1679 66.183 46.1548C66.183 46.1417 66.183 46.1286 66.183 46.1155C66.183 46.1024 66.183 46.0893 66.183 46.0762C66.183 46.0632 66.183 46.0501 66.183 46.0371C66.183 46.024 66.183 46.011 66.183 45.998C66.183 45.985 66.183 45.972 66.183 45.959C66.183 45.946 66.183 45.933 66.183 45.9201C66.183 45.9071 66.183 45.8942 66.183 45.8813C66.183 45.8683 66.183 45.8554 66.183 45.8425C66.183 45.8296 66.183 45.8167 66.183 45.8039C66.183 45.791 66.183 45.7782 66.183 45.7653C66.183 45.7525 66.183 45.7397 66.183 45.7268C66.183 45.714 66.183 45.7012 66.183 45.6885C66.183 45.6757 66.183 45.6629 66.183 45.6502C66.183 45.6374 66.183 45.6247 66.183 45.612C66.183 45.5992 66.183 45.5865 66.183 45.5738C66.183 45.5612 66.183 45.5485 66.183 45.5358C66.183 45.5232 66.183 45.5105 66.183 45.4979C66.183 45.4853 66.183 45.4726 66.183 45.4601C66.183 45.4475 66.183 45.4349 66.183 45.4223C66.183 45.4097 66.183 45.3972 66.183 45.3847C66.183 45.3721 66.183 45.3596 66.183 45.3471C66.183 45.3346 66.183 45.3221 66.183 45.3096C66.183 45.2972 66.183 45.2847 66.183 45.2723C66.183 45.2598 66.183 45.2474 66.183 45.235C66.183 45.2226 66.183 45.2102 66.183 45.1979C66.183 45.1855 66.183 45.1731 66.183 45.1608C66.183 45.1484 66.183 45.1361 66.183 45.1238C66.183 45.1115 66.183 45.0992 66.183 45.0869C66.183 45.0747 66.183 45.0624 66.183 45.0502C66.183 45.0379 66.183 45.0257 66.183 45.0135C66.183 45.0013 66.183 44.9891 66.183 44.9769C66.183 44.9648 66.183 44.9526 66.183 44.9405C66.183 44.9283 66.183 44.9162 66.183 44.9041C66.183 44.892 66.183 44.8799 66.183 44.8678C66.183 44.8558 66.183 44.8437 66.183 44.8317C66.183 44.8197 66.183 44.8076 66.183 44.7956C66.183 44.7836 66.183 44.7717 66.183 44.7597C66.183 44.7477 66.183 44.7358 66.183 44.7239C66.183 44.7119 66.183 44.7 66.183 44.6881C66.183 44.6762 66.183 44.6644 66.183 44.6525C66.183 44.6406 66.183 44.6288 66.183 44.617C66.183 44.6052 66.183 44.5934 66.183 44.5816C66.183 44.5698 66.183 44.558 66.183 44.5463C66.183 44.5345 66.183 44.5228 66.183 44.5111C66.183 44.4994 66.183 44.4877 66.183 44.476C66.183 44.4643 66.183 44.4527 66.183 44.441C66.183 44.4294 66.183 44.4178 66.183 44.4062C66.183 44.3946 66.183 44.383 66.183 44.3714C66.183 44.3599 66.183 44.3483 66.183 44.3368C66.183 44.3253 66.183 44.3138 66.183 44.3023C66.183 44.2908 66.183 44.2793 66.183 44.2679C66.183 44.2564 66.183 44.245 66.183 44.2336C66.183 44.2222 66.183 44.2108 66.183 44.1994C66.183 44.1881 66.183 44.1767 66.183 44.1654C66.183 44.1541 66.183 44.1427 66.183 44.1314C66.183 44.1202 66.183 44.1089 66.183 44.0976C66.183 44.0864 66.183 44.0751 66.183 44.0639C66.183 44.0527 66.183 44.0415 66.183 44.0303C66.183 44.0192 66.183 44.008 66.183 43.9969C66.183 43.9858 66.183 43.9746 66.183 43.9635C66.183 43.9525 66.183 43.9414 66.183 43.9303C66.183 43.9193 66.183 43.9082 66.183 43.8972C66.183 43.8862 66.183 43.8752 66.183 43.8643C66.183 43.8533 66.183 43.8423 66.183 43.8314C66.183 43.8205 66.183 43.8096 66.183 43.7987C66.183 43.7878 66.183 43.7769 66.183 43.7661C66.183 43.7552 66.183 43.7444 66.183 43.7336C66.183 43.7228 66.183 43.712 66.183 43.7012C66.183 43.6905 66.183 43.6797 66.183 43.669C66.183 43.6583 66.183 43.6476 66.183 43.6369C66.183 43.6262 66.183 43.6156 66.183 43.6049C66.183 43.5943 66.183 43.5837 66.183 43.5731C66.183 43.5625 66.183 43.5519 66.183 43.5414C66.183 43.5308 66.183 43.5203 66.183 43.5098C66.183 43.4993 66.183 43.4888 66.183 43.4783C66.183 43.4679 66.183 43.4574 66.183 43.447C66.183 43.4366 66.183 43.4262 66.183 43.4158C66.183 43.4054 66.183 43.3951 66.183 43.3847C66.183 43.3744 66.183 43.3641 66.183 43.3538C66.183 43.3435 66.183 43.3332 66.183 43.323C66.183 43.3128 66.183 43.3025 66.183 43.2923C66.183 43.2821 66.183 43.272 66.183 43.2618C66.183 43.2517 66.183 43.2415 66.183 43.2314C66.183 43.2213 66.183 43.2112 66.183 43.2012C66.183 43.1911 66.183 43.1811 66.183 43.171C66.183 43.161 66.183 43.151 66.183 43.1411C66.183 43.1311 66.183 43.1211 66.183 43.1112C66.183 43.1013 66.183 43.0914 66.183 43.0815C66.183 43.0716 66.183 43.0618 66.183 43.0519C66.183 43.0421 66.183 43.0323 66.183 43.0225C66.183 43.0127 66.183 43.003 66.183 42.9932C66.183 42.9835 66.183 42.9738 66.183 42.9641C66.183 42.9544 66.183 42.9447 66.183 42.9351C66.183 42.9254 66.183 42.9158 66.183 42.9062C66.183 42.8966 66.183 42.887 66.183 42.8775C66.183 42.8679 66.183 42.8584 66.183 42.8489C66.183 42.8394 66.183 42.8299 66.183 42.8205C66.183 42.811 66.183 42.8016 66.183 42.7922C66.183 42.7828 66.183 42.7734 66.183 42.7641C66.183 42.7547 66.183 42.7454 66.183 42.7361C66.183 42.7268 66.183 42.7175 66.183 42.7082C66.183 42.699 66.183 42.6897 66.183 42.6805C66.183 42.6713 66.183 42.6621 66.183 42.653C66.183 42.6438 66.183 42.6347 66.183 42.6256C66.183 42.6165 66.183 42.6074 66.183 42.5983C66.183 42.5893 66.183 42.5802 66.183 42.5712C66.183 42.5622 66.183 42.5532 66.183 42.5443C66.183 42.5353 66.183 42.5264 66.183 42.5175C66.183 42.5086 66.183 42.4997 66.183 42.4908C66.183 42.482 66.183 42.4732 66.183 42.4643C66.183 42.4555 66.183 42.4468 66.183 42.438C66.183 42.4293 66.183 42.4205 66.183 42.4118C66.183 42.4031 66.183 42.3944 66.183 42.3858C66.183 42.3771 66.183 42.3685 66.183 42.3599C66.183 42.3513 66.183 42.3427 66.183 42.3342C66.183 42.3257 66.183 42.3171 66.183 42.3086C66.183 42.3001 66.183 42.2917 66.183 42.2832C66.183 42.2748 66.183 42.2664 66.183 42.258C66.183 42.2496 66.183 42.2412 66.183 42.2329C66.183 42.2246 66.183 42.2163 66.183 42.208C66.183 42.1997 66.183 42.1914 66.183 42.1832C66.183 42.175 66.183 42.1668 66.183 42.1586C66.183 42.1504 66.183 42.1423 66.183 42.1342C66.183 42.126 66.183 42.1179 66.183 42.1099C66.183 42.1018 66.183 42.0938 66.183 42.0857C66.183 42.0777 66.183 42.0697 66.183 42.0618C66.183 42.0538 66.183 42.0459 66.183 42.038C66.183 42.0301 66.183 42.0222 66.183 42.0144C66.183 42.0065 66.183 41.9987 66.183 41.9909C66.183 41.9831 66.183 41.9753 66.183 41.9676C66.183 41.9599 66.183 41.9522 66.183 41.9445C66.183 41.9368 66.183 41.9291 66.183 41.9215C66.183 41.9139 66.183 41.9063 66.183 41.8987C66.183 41.8911 66.183 41.8836 66.183 41.8761C66.183 41.8686 66.183 41.8611 66.183 41.8536C66.183 41.8462 66.183 41.8387 66.183 41.8313C66.183 41.8239 66.183 41.8166 66.183 41.8092C66.183 41.8019 66.183 41.7946 66.183 41.7873C66.183 41.78 66.183 41.7727 66.183 41.7655C66.183 41.7583 66.183 41.7511 66.183 41.7439C66.183 41.7367 66.183 41.7296 66.183 41.7225C66.183 41.7153 66.183 41.7083 66.183 41.7012C66.183 41.6942 66.183 41.6871 66.183 41.6801C66.183 41.6731 66.183 41.6662 66.183 41.6592C66.183 41.6523 66.183 41.6454 66.183 41.6385C66.183 41.6316 66.183 41.6248 66.183 41.6179C66.183 41.6111 66.183 41.6043 66.183 41.5976C66.183 41.5908 66.183 41.5841 66.183 41.5774C66.183 41.5707 66.183 41.564 66.183 41.5573C66.183 41.5507 66.183 41.5441 66.183 41.5375C66.183 41.5309 66.183 41.5244 66.183 41.5178C66.183 41.5113 66.183 41.5048 66.183 41.4983C66.183 41.4919 66.183 41.4854 66.183 41.479C66.183 41.4726 66.183 41.4663 66.183 41.4599C66.183 41.4536 66.183 41.4473 66.183 41.441C66.183 41.4347 66.183 41.4284 66.183 41.4222C66.183 41.416 66.183 41.4098 66.183 41.4037C66.183 41.3975 66.183 41.3914 66.183 41.3853C66.183 41.3792 66.183 41.3731 66.183 41.3671C66.183 41.361 66.183 41.355 66.183 41.349C66.183 41.3431 66.183 41.3371 66.183 41.3312C66.183 41.3253 66.183 41.3194 66.183 41.3136C66.183 41.3077 66.183 41.3019 66.183 41.2961C66.183 41.2903 66.183 41.2846 66.183 41.2788C66.183 41.2731 66.183 41.2674 66.183 41.2618C66.183 41.2561 66.183 41.2505 66.183 41.2449C66.183 41.2393 66.183 41.2337 66.183 41.2282C66.183 41.2226 66.183 41.2171 66.183 41.2117C66.183 41.2062 66.183 41.2007 66.183 41.1953C66.183 41.1899 66.183 41.1846 66.183 41.1792C66.183 41.1739 66.183 41.1686 66.183 41.1633C66.183 41.158 66.183 41.1527 66.183 41.1475C66.183 41.1423 66.183 41.1371 66.183 41.132C66.183 41.1268 66.183 41.1217 66.183 41.1166C66.183 41.1115 66.183 41.1065 66.183 41.1015C66.183 41.0965 66.183 41.0915 66.183 41.0865C66.183 41.0816 66.183 41.0766 66.183 41.0717C66.183 41.0669 66.183 41.062 66.183 41.0572C66.183 41.0524 66.183 41.0476 66.183 41.0428C66.183 41.038 66.183 41.0333 66.183 41.0286C66.183 41.0239 66.183 41.0193 66.183 41.0147C66.183 41.01 66.183 41.0054 66.183 41.0009C66.183 40.9963 66.183 40.9918 66.183 40.9873C66.183 40.9828 66.183 40.9784 66.183 40.9739C66.183 40.9695 66.183 40.9651 66.183 40.9608C66.183 40.9564 66.183 40.9521 66.183 40.9478C66.183 40.9435 66.183 40.9393 66.183 40.935C66.183 40.9308 66.183 40.9266 66.183 40.9225C66.183 40.9183 66.183 40.9142 66.183 40.9101C66.183 40.906 66.183 40.902 66.183 40.898C66.183 40.8939 66.183 40.89 66.183 40.886C66.183 40.8821 66.183 40.8782 66.183 40.8743C66.183 40.8704 66.183 40.8666 66.183 40.8627C66.183 40.8589 66.183 40.8552 66.183 40.8514C66.183 40.8477 66.183 40.844 66.183 40.8403C66.183 40.8366 66.183 40.833 66.183 40.8294H64.8659ZM64.8659 59.2684C64.8659 60.2039 64.0946 60.9148 63.2193 60.9148V62.2318C64.7859 62.2318 66.183 60.967 66.183 59.2684H64.8659ZM63.2193 60.9148C62.7035 60.9148 62.2936 60.7478 62.0193 60.495C61.7502 60.247 61.573 59.882 61.573 59.3974H60.2559C60.2559 60.2298 60.5726 60.9528 61.1267 61.4635C61.6755 61.9693 62.4181 62.2318 63.2193 62.2318V60.9148ZM61.573 59.3974V55.1169H60.2559V59.3974H61.573ZM61.573 55.1169V41.8172H60.2559V55.1169H61.573ZM60.6745 54.5036L53.4308 57.3381L53.9108 58.5646L61.1544 55.7301L60.6745 54.5036ZM53.0123 57.9513V80.6709H54.3294V57.9513H53.0123ZM53.0401 80.4816C52.8556 81.0965 52.7254 81.6845 52.362 82.169C52.0464 82.5898 51.5102 82.9757 50.3781 82.9757V84.2928C51.8802 84.2928 52.8257 83.7458 53.4156 82.9593C53.9577 82.2365 54.1568 81.3427 54.3016 80.8601L53.0401 80.4816ZM50.3781 82.9757C49.0955 82.9757 48.4025 81.9535 48.4025 81.3294H47.0855C47.0855 82.6809 48.3681 84.2928 50.3781 84.2928V82.9757ZM58.9392 41.8248L59.2681 70.4711L60.5851 70.456L60.2561 41.8096L58.9392 41.8248ZM59.2809 70.3344C59.2488 70.4947 59.1066 70.8707 58.7882 71.1976C58.4885 71.5052 58.0239 71.7806 57.2925 71.7806V73.0977C58.405 73.0977 59.2026 72.6597 59.7316 72.1167C60.2418 71.5929 60.4947 70.9812 60.5724 70.5927L59.2809 70.3344ZM57.2925 71.7806C56.5775 71.7806 56.1129 71.4911 55.8042 71.164C55.4779 70.8182 55.3289 70.4296 55.2975 70.3038L54.0197 70.6233C54.0981 70.9365 54.3441 71.5357 54.8463 72.0679C55.3661 72.6189 56.1636 73.0977 57.2925 73.0977V71.7806ZM55.3172 70.4635V58.2806H54.0001V70.4635H55.3172ZM54.8963 58.8948L60.0017 56.9192L59.5264 55.6908L54.421 57.6665L54.8963 58.8948ZM53.6708 72.1099V80.6709H54.9879V72.1099H53.6708ZM53.6708 80.6709C53.6708 81.1383 53.8787 82.0085 54.404 82.7726C54.9524 83.5703 55.8795 84.2928 57.2928 84.2928V82.9757C56.4009 82.9757 55.8463 82.5458 55.4893 82.0265C55.1092 81.4735 54.9879 80.8619 54.9879 80.6709H53.6708ZM57.2928 84.2928C58.4148 84.2928 59.259 83.7644 59.8038 83.0436C60.3349 82.3409 60.5852 81.4568 60.5852 80.6709H59.2681C59.2681 81.202 59.0931 81.7996 58.7531 82.2494C58.4269 82.681 57.9542 82.9757 57.2928 82.9757V84.2928ZM60.5852 80.6709V71.7806H59.2681V80.6709H60.5852ZM59.3019 71.5724C59.1633 71.9881 58.5629 72.7684 57.2925 72.7684V74.0855C59.183 74.0855 60.2509 72.8902 60.5514 71.9889L59.3019 71.5724ZM57.2925 72.7684C55.9538 72.7684 55.0834 72.0177 54.8562 71.7148L53.8025 72.505C54.2339 73.0801 55.4702 74.0855 57.2925 74.0855V72.7684ZM61.3096 41.2904L59.9928 40.3026L59.2025 41.3562L60.5193 42.344L61.3096 41.2904ZM58.9391 40.8294V41.8172H60.2562V40.8294H58.9391ZM47.7437 59.2684V41.8172H46.4266V59.2684H47.7437ZM47.5508 42.2829L48.5386 41.295L47.6073 40.3637L46.6195 41.3515L47.5508 42.2829ZM47.4145 40.824L47.0855 81.324L48.4025 81.3347L48.7315 40.8347L47.4145 40.824ZM60.4225 56.2974L60.2561 41.8096L58.9392 41.8248L59.1055 56.3126L60.4225 56.2974Z" fill="url(#paint3_linear_2756_14595)"/>
<circle cx="57.2936" cy="81.6586" r="1.31707" fill="url(#paint4_linear_2756_14595)"/>
<circle cx="54.0007" cy="30.2925" r="4.60976" stroke="url(#paint5_linear_2756_14595)" stroke-width="1.31707"/>
<defs>
<linearGradient id="paint0_linear_2756_14595" x1="101.891" y1="54" x2="6.70072" y2="54" gradientUnits="userSpaceOnUse">
<stop stop-color="#AC8246"/>
<stop offset="1" stop-color="#F1EA99"/>
</linearGradient>
<linearGradient id="paint1_linear_2756_14595" x1="58.6107" y1="70.2754" x2="56.3529" y2="70.2754" gradientUnits="userSpaceOnUse">
<stop stop-color="#AF7428"/>
<stop offset="1" stop-color="#C49448"/>
</linearGradient>
<linearGradient id="paint2_linear_2756_14595" x1="59.2666" y1="58.9392" x2="58.2788" y2="57.2928" gradientUnits="userSpaceOnUse">
<stop stop-color="#B88136"/>
<stop offset="1" stop-color="#BC883C"/>
</linearGradient>
<linearGradient id="paint3_linear_2756_14595" x1="67.1705" y1="56.6343" x2="42.8047" y2="52.6831" gradientUnits="userSpaceOnUse">
<stop stop-color="#995409"/>
<stop offset="1" stop-color="#FFEB9D"/>
</linearGradient>
<linearGradient id="paint4_linear_2756_14595" x1="58.6107" y1="81.8468" x2="55.9766" y2="81.8468" gradientUnits="userSpaceOnUse">
<stop stop-color="#AA6D21"/>
<stop offset="1" stop-color="#C08D41"/>
</linearGradient>
<linearGradient id="paint5_linear_2756_14595" x1="59.269" y1="30.6217" x2="48.7324" y2="29.6339" gradientUnits="userSpaceOnUse">
<stop stop-color="#AA6D2E"/>
<stop offset="1" stop-color="#DCB76A"/>
</linearGradient>
</defs>
</svg>
