<svg width="25" height="24" viewBox="0 0 25 24" fill="none" xmlns="http://www.w3.org/2000/svg">
<path d="M21.8191 13.0353L21.3943 13.4718L19.7536 11.786L20.1974 11.3301L20.1977 11.3297C20.254 11.2718 20.32 11.2266 20.3918 11.196C20.4635 11.1654 20.5398 11.1499 20.6166 11.1499C20.6934 11.1499 20.7698 11.1654 20.8415 11.196C20.9133 11.2266 20.9793 11.2718 21.0356 11.3297L21.0359 11.3301L21.8191 12.1347C22.0603 12.3826 22.0603 12.7874 21.8191 13.0353ZM14.5614 20.4813L14.5522 20.4907L14.5457 20.4981C14.5435 20.4989 14.5393 20.5 14.5336 20.5H12.9784C12.9626 20.5 12.9529 20.4949 12.9452 20.4869C12.9371 20.4786 12.9269 20.4622 12.9269 20.4333V18.8353C12.9269 18.8145 12.9304 18.8033 12.9322 18.7988C12.9339 18.7945 12.9359 18.7912 12.9397 18.7874L18.2736 13.3067L19.9126 14.9828L14.5614 20.4813ZM14.1329 9.66667C14.1329 10.0267 13.8477 10.3 13.5299 10.3H3.60299C3.28519 10.3 3 10.0267 3 9.66667C3 9.3066 3.28519 9.03333 3.60299 9.03333H13.5299C13.8477 9.03333 14.1329 9.3066 14.1329 9.66667ZM3.60299 5.76667C3.28519 5.76667 3 5.4934 3 5.13333C3 4.77327 3.28519 4.5 3.60299 4.5H13.5299C13.8477 4.5 14.1329 4.77327 14.1329 5.13333C14.1329 5.4934 13.8477 5.76667 13.5299 5.76667H3.60299ZM9.11795 13.5667C9.43575 13.5667 9.72094 13.8399 9.72094 14.2C9.72094 14.5601 9.43575 14.8333 9.11795 14.8333H3.60299C3.28519 14.8333 3 14.5601 3 14.2C3 13.8399 3.28519 13.5667 3.60299 13.5667H9.11795Z" fill="#EDF7FF" stroke="#EDF7FF"/>
</svg>
