<svg width="21" height="24" viewBox="0 0 21 24" fill="none" xmlns="http://www.w3.org/2000/svg">
<path d="M14.1132 3.82775C14.5776 3.30492 14.9316 2.69763 15.155 2.04075C15.3785 1.38387 15.4669 0.690347 15.4152 0C13.9897 0.112417 12.6664 0.767416 11.7305 1.82388C11.2823 2.33022 10.9427 2.91926 10.7317 3.55614C10.5208 4.19301 10.4427 4.86477 10.5023 5.53163C11.1976 5.53729 11.885 5.38656 12.5112 5.09109C13.1373 4.79563 13.6855 4.36336 14.1132 3.82775ZM17.2084 12.7552C17.2166 11.8357 17.4645 10.9335 17.9287 10.1336C18.3929 9.33368 19.058 8.66253 19.8613 8.18346C19.3543 7.46979 18.6841 6.88134 17.9038 6.46478C17.1235 6.04822 16.2546 5.815 15.366 5.78362C13.45 5.59163 11.6814 6.87554 10.6619 6.87554C9.64252 6.87554 8.2055 5.80761 6.60882 5.83161C5.56499 5.86521 4.54789 6.16253 3.65672 6.69458C2.76556 7.22663 2.03075 7.97525 1.52398 8.86741C-0.637689 12.5392 0.971281 17.9988 3.13295 20.9626C4.11553 22.4145 5.34375 24.0584 6.965 23.9984C8.58625 23.9384 9.11439 23.0145 10.9936 23.0145C12.8727 23.0145 13.45 23.9984 15.0467 23.9624C16.6434 23.9264 17.7733 22.4745 18.8051 21.0226C19.5359 19.9685 20.1068 18.8167 20.5 17.6028C19.5266 17.1973 18.6961 16.522 18.1112 15.6605C17.5262 14.799 17.2123 13.789 17.2084 12.7552Z" fill="#0E265D"/>
</svg>
