<svg width="24" height="24" viewBox="0 0 24 24" fill="none" xmlns="http://www.w3.org/2000/svg">
<path fill-rule="evenodd" clip-rule="evenodd" d="M7.875 8.24459C7.57663 8.24459 7.29048 8.12607 7.0795 7.91509C6.86853 7.70411 6.75 7.41796 6.75 7.11959V5.99909C6.15326 5.99909 5.58097 6.23615 5.15901 6.6581C4.73705 7.08006 4.5 7.65236 4.5 8.24909V9.74909H19.5V8.24909C19.5 7.65236 19.2629 7.08006 18.841 6.6581C18.419 6.23615 17.8467 5.99909 17.25 5.99909V7.12409C17.25 7.42246 17.1315 7.70861 16.9205 7.91959C16.7095 8.13057 16.4234 8.24909 16.125 8.24909C15.8266 8.24909 15.5405 8.13057 15.3295 7.91959C15.1185 7.70861 15 7.42246 15 7.12409V5.99909H9V7.11959C9 7.41796 8.88147 7.70411 8.6705 7.91509C8.45952 8.12607 8.17337 8.24459 7.875 8.24459ZM15 3.74909H9V2.62109C9 2.32273 8.88147 2.03658 8.6705 1.8256C8.45952 1.61462 8.17337 1.49609 7.875 1.49609C7.57663 1.49609 7.29048 1.61462 7.0795 1.8256C6.86853 2.03658 6.75 2.32273 6.75 2.62109V3.74909C5.55653 3.74909 4.41193 4.2232 3.56802 5.06711C2.72411 5.91103 2.25 7.05562 2.25 8.24909V17.2491C2.25 18.4426 2.72411 19.5872 3.56802 20.4311C4.41193 21.275 5.55653 21.7491 6.75 21.7491H17.25C18.4435 21.7491 19.5881 21.275 20.432 20.4311C21.2759 19.5872 21.75 18.4426 21.75 17.2491V8.24909C21.75 7.05562 21.2759 5.91103 20.432 5.06711C19.5881 4.2232 18.4435 3.74909 17.25 3.74909V2.62409C17.25 2.32573 17.1315 2.03958 16.9205 1.8286C16.7095 1.61762 16.4234 1.49909 16.125 1.49909C15.8266 1.49909 15.5405 1.61762 15.3295 1.8286C15.1185 2.03958 15 2.32573 15 2.62409V3.74909ZM4.5 11.9991V17.2491C4.5 17.8458 4.73705 18.4181 5.15901 18.8401C5.58097 19.262 6.15326 19.4991 6.75 19.4991H17.25C17.8467 19.4991 18.419 19.262 18.841 18.8401C19.2629 18.4181 19.5 17.8458 19.5 17.2491V11.9991H4.5Z" fill="black"/>
</svg>
