<svg width="25" height="24" viewBox="0 0 25 24" fill="none" xmlns="http://www.w3.org/2000/svg">
<path d="M6.53938 12C6.53793 13.4165 7.04258 14.7877 7.96401 15.8712C8.88544 16.9546 10.1642 17.6802 11.574 17.9197C12.9838 18.1592 14.4338 17.897 15.6671 17.1797C16.9005 16.4623 17.8378 15.336 18.3132 14H12.5985V10H22.5V14H22.4949C21.5588 18.564 17.4841 22 12.5985 22C7.02108 22 2.5 17.523 2.5 12C2.5 6.477 7.02108 2 12.5985 2C14.2491 1.99884 15.8748 2.39875 17.3329 3.16467C18.7911 3.93058 20.0372 5.0391 20.962 6.393L17.6517 8.688C16.9331 7.61241 15.8837 6.79473 14.6589 6.35617C13.4341 5.9176 12.0993 5.88149 10.8522 6.25319C9.60506 6.62488 8.51209 7.38461 7.73525 8.41974C6.95842 9.45487 6.53908 10.7103 6.53938 12Z" fill="#0E265D"/>
</svg>
