<svg width="24" height="24" viewBox="0 0 24 24" fill="none" xmlns="http://www.w3.org/2000/svg">
<path d="M21.0116 11.832L21.0083 20.5007C21.0081 20.8986 20.8499 21.2801 20.5684 21.5614C20.287 21.8426 19.9053 22.0005 19.5074 22.0004L15.7567 21.9989C15.3588 21.9988 14.9773 21.8406 14.6961 21.5591C14.4148 21.2776 14.2569 20.896 14.257 20.4981L14.2585 16.7474C14.2586 16.5485 14.1796 16.3576 14.039 16.2169C13.8984 16.0762 13.7076 15.9971 13.5087 15.997L10.5081 15.9958C10.3092 15.9957 10.1183 16.0747 9.97761 16.2153C9.83688 16.3559 9.75777 16.5467 9.75769 16.7457L9.75623 20.4963C9.75608 20.8942 9.59787 21.2758 9.3164 21.557C9.03494 21.8383 8.65328 21.9962 8.25538 21.996L4.5047 21.9946C4.10681 21.9944 3.72527 21.8362 3.44402 21.5547C3.16278 21.2733 3.00486 20.8916 3.00502 20.4937L3.00838 11.825C3.00843 11.6173 3.05158 11.412 3.1351 11.2218C3.21862 11.0317 3.34069 10.8611 3.49359 10.7206L10.9977 3.64596L11.008 3.63565C11.2843 3.38458 11.6442 3.24554 12.0176 3.24569C12.3909 3.24583 12.7507 3.38515 13.0268 3.63643C13.03 3.6401 13.0335 3.64355 13.0371 3.64675L20.5357 10.7272C20.687 10.8685 20.8073 11.0397 20.8893 11.2298C20.9712 11.4199 21.0128 11.6249 21.0116 11.832Z" fill="black"/>
</svg>
