<svg width="64" height="64" viewBox="0 0 64 64" fill="none" xmlns="http://www.w3.org/2000/svg">
<path d="M44 28C41.1886 28.0011 38.4279 28.7486 36 30.166V18C36 14.287 34.525 10.726 31.8995 8.1005C29.274 5.475 25.713 4 22 4C18.287 4 14.726 5.475 12.1005 8.1005C9.475 10.726 8 14.287 8 18V46C7.99928 48.8534 8.87058 51.6388 10.4972 53.9832C12.1237 56.3275 14.4279 58.1188 17.101 59.117C19.7741 60.1152 22.6883 60.2727 25.4534 59.5683C28.2185 58.864 30.7023 57.3314 32.572 55.176C34.4164 57.0622 36.6988 58.4629 39.2157 59.2533C41.7327 60.0437 44.406 60.1992 46.9977 59.706C49.5893 59.2128 52.0186 58.0862 54.0693 56.4265C56.12 54.7669 57.7283 52.6257 58.751 50.1939C59.7736 47.762 60.1788 45.115 59.9305 42.4886C59.6822 39.8621 58.7881 37.3379 57.3278 35.1408C55.8675 32.9437 53.8864 31.1419 51.561 29.896C49.2356 28.6501 46.6381 27.9988 44 28ZM44 32C46.8332 32.0049 49.5735 33.0112 51.7365 34.8411C53.8994 36.6711 55.3458 39.2067 55.82 42H32.18C32.6542 39.2067 34.1006 36.6711 36.2635 34.8411C38.4265 33.0112 41.1668 32.0049 44 32ZM12 18C12 15.3478 13.0536 12.8043 14.9289 10.9289C16.8043 9.05357 19.3478 8 22 8C24.6522 8 27.1957 9.05357 29.0711 10.9289C30.9464 12.8043 32 15.3478 32 18V30H12V18ZM22 56C19.3488 55.9968 16.8071 54.9422 14.9324 53.0676C13.0578 51.1929 12.0032 48.6512 12 46V34H31.53C29.5223 36.4877 28.3104 39.5224 28.0521 42.7088C27.7938 45.8951 28.5012 49.0854 30.082 51.864C29.158 53.1434 27.9436 54.1855 26.5387 54.9044C25.1337 55.6234 23.5782 55.9989 22 56ZM44 56C41.1668 55.9951 38.4265 54.9888 36.2635 53.1589C34.1006 51.3289 32.6542 48.7933 32.18 46H55.82C55.3458 48.7933 53.8994 51.3289 51.7365 53.1589C49.5735 54.9888 46.8332 55.9951 44 56Z" fill="black"/>
</svg>
