<svg width="44" height="44" viewBox="0 0 44 44" fill="none" xmlns="http://www.w3.org/2000/svg">
<path d="M30.25 19.25C28.3172 19.2508 26.4192 19.7646 24.75 20.7391V12.375C24.75 9.82229 23.7359 7.37413 21.9309 5.5691C20.1259 3.76406 17.6777 2.75 15.125 2.75C12.5723 2.75 10.1241 3.76406 8.3191 5.5691C6.51406 7.37413 5.5 9.82229 5.5 12.375V31.625C5.49951 33.5867 6.09853 35.5017 7.2168 37.1134C8.33508 38.7252 9.9192 39.9567 11.7569 40.6429C13.5947 41.3292 15.5982 41.4375 17.4992 40.9532C19.4002 40.469 21.1078 39.4153 22.3932 37.9335C23.6613 39.2303 25.2304 40.1933 26.9608 40.7367C28.6912 41.28 30.5292 41.387 32.3109 41.0479C34.0926 40.7088 35.7628 39.9342 37.1727 38.7932C38.5825 37.6522 39.6882 36.1802 40.3913 34.5083C41.0944 32.8364 41.3729 31.0165 41.2022 29.2109C41.0315 27.4052 40.4168 25.6698 39.4128 24.1593C38.4089 22.6488 37.0469 21.4101 35.4482 20.5535C33.8495 19.697 32.0637 19.2491 30.25 19.25ZM30.25 22C32.1978 22.0033 34.0818 22.6952 35.5688 23.9533C37.0559 25.2113 38.0503 26.9546 38.3763 28.875H22.1238C22.4497 26.9546 23.4441 25.2113 24.9312 23.9533C26.4182 22.6952 28.3022 22.0033 30.25 22ZM8.25 12.375C8.25 10.5516 8.97433 8.80295 10.2636 7.51364C11.553 6.22433 13.3016 5.5 15.125 5.5C16.9484 5.5 18.697 6.22433 19.9864 7.51364C21.2757 8.80295 22 10.5516 22 12.375V20.625H8.25V12.375ZM15.125 38.5C13.3023 38.4978 11.5549 37.7728 10.2661 36.4839C8.97721 35.1951 8.25218 33.4477 8.25 31.625V23.375H21.6769C20.2966 25.0853 19.4634 27.1717 19.2858 29.3623C19.1083 31.5529 19.5946 33.7462 20.6814 35.6565C20.0461 36.5361 19.2112 37.2525 18.2453 37.7468C17.2794 38.2411 16.21 38.4992 15.125 38.5ZM30.25 38.5C28.3022 38.4967 26.4182 37.8048 24.9312 36.5467C23.4441 35.2887 22.4497 33.5454 22.1238 31.625H38.3763C38.0503 33.5454 37.0559 35.2887 35.5688 36.5467C34.0818 37.8048 32.1978 38.4967 30.25 38.5Z" fill="black"/>
</svg>
