<svg width="44" height="44" viewBox="0 0 44 44" fill="none" xmlns="http://www.w3.org/2000/svg">
<path d="M15.125 16.5C15.125 16.1353 15.2699 15.7856 15.5277 15.5277C15.7856 15.2699 16.1353 15.125 16.5 15.125H27.5C27.8647 15.125 28.2144 15.2699 28.4723 15.5277C28.7301 15.7856 28.875 16.1353 28.875 16.5C28.875 16.8647 28.7301 17.2144 28.4723 17.4723C28.2144 17.7301 27.8647 17.875 27.5 17.875H16.5C16.1353 17.875 15.7856 17.7301 15.5277 17.4723C15.2699 17.2144 15.125 16.8647 15.125 16.5ZM16.5 23.375H27.5C27.8647 23.375 28.2144 23.2301 28.4723 22.9723C28.7301 22.7144 28.875 22.3647 28.875 22C28.875 21.6353 28.7301 21.2856 28.4723 21.0277C28.2144 20.7699 27.8647 20.625 27.5 20.625H16.5C16.1353 20.625 15.7856 20.7699 15.5277 21.0277C15.2699 21.2856 15.125 21.6353 15.125 22C15.125 22.3647 15.2699 22.7144 15.5277 22.9723C15.7856 23.2301 16.1353 23.375 16.5 23.375ZM22 26.125H16.5C16.1353 26.125 15.7856 26.2699 15.5277 26.5277C15.2699 26.7856 15.125 27.1353 15.125 27.5C15.125 27.8647 15.2699 28.2144 15.5277 28.4723C15.7856 28.7301 16.1353 28.875 16.5 28.875H22C22.3647 28.875 22.7144 28.7301 22.9723 28.4723C23.2301 28.2144 23.375 27.8647 23.375 27.5C23.375 27.1353 23.2301 26.7856 22.9723 26.5277C22.7144 26.2699 22.3647 26.125 22 26.125ZM38.5 8.25V26.9311C38.5012 27.2924 38.4305 27.6503 38.2921 27.984C38.1537 28.3177 37.9504 28.6206 37.6939 28.875L28.875 37.6939C28.6206 37.9504 28.3177 38.1537 27.984 38.2921C27.6503 38.4305 27.2924 38.5012 26.9311 38.5H8.25C7.52065 38.5 6.82118 38.2103 6.30546 37.6945C5.78973 37.1788 5.5 36.4793 5.5 35.75V8.25C5.5 7.52065 5.78973 6.82118 6.30546 6.30546C6.82118 5.78973 7.52065 5.5 8.25 5.5H35.75C36.4793 5.5 37.1788 5.78973 37.6945 6.30546C38.2103 6.82118 38.5 7.52065 38.5 8.25ZM8.25 35.75H26.125V27.5C26.125 27.1353 26.2699 26.7856 26.5277 26.5277C26.7856 26.2699 27.1353 26.125 27.5 26.125H35.75V8.25H8.25V35.75ZM28.875 28.875V33.8078L33.8061 28.875H28.875Z" fill="black"/>
</svg>
