<svg width="24" height="24" viewBox="0 0 24 24" fill="none" xmlns="http://www.w3.org/2000/svg">
<path fill-rule="evenodd" clip-rule="evenodd" d="M13.5005 3H10.5005C10.3015 3 10.1108 3.07902 9.97012 3.21967C9.82947 3.36032 9.75045 3.55109 9.75045 3.75V4.5H14.2505V3.75C14.2505 3.55109 14.1714 3.36032 14.0308 3.21967C13.8901 3.07902 13.6994 3 13.5005 3ZM16.5005 4.5V3.75C16.5005 2.95435 16.1844 2.19129 15.6218 1.62868C15.0592 1.06607 14.2961 0.75 13.5005 0.75H10.5005C9.7048 0.75 8.94174 1.06607 8.37913 1.62868C7.81652 2.19129 7.50045 2.95435 7.50045 3.75V4.5H3.37695C3.07858 4.5 2.79244 4.61853 2.58146 4.8295C2.37048 5.04048 2.25195 5.32663 2.25195 5.625C2.25195 5.92337 2.37048 6.20952 2.58146 6.4205C2.79244 6.63147 3.07858 6.75 3.37695 6.75H3.84495L4.32045 18.1875C4.36884 19.3477 4.86381 20.4442 5.70189 21.2479C6.53997 22.0516 7.65628 22.5002 8.81745 22.5H15.185C16.3459 22.4998 17.4618 22.051 18.2996 21.2474C19.1373 20.4437 19.6321 19.3474 19.6805 18.1875L20.1575 6.75H20.6255C20.9238 6.75 21.21 6.63147 21.4209 6.4205C21.6319 6.20952 21.7505 5.92337 21.7505 5.625C21.7505 5.32663 21.6319 5.04048 21.4209 4.8295C21.21 4.61853 20.9238 4.5 20.6255 4.5H16.5005ZM17.9045 6.75H6.09645L6.56895 18.093C6.59296 18.6732 6.84036 19.2217 7.25942 19.6237C7.67848 20.0257 8.23674 20.2501 8.81745 20.25H15.185C15.7654 20.2497 16.3233 20.0251 16.742 19.6232C17.1608 19.2212 17.408 18.673 17.432 18.093L17.9045 6.75ZM8.62545 9.75V17.25C8.62545 17.5484 8.74398 17.8345 8.95496 18.0455C9.16594 18.2565 9.45208 18.375 9.75045 18.375C10.0488 18.375 10.335 18.2565 10.5459 18.0455C10.7569 17.8345 10.8755 17.5484 10.8755 17.25V9.75C10.8755 9.45163 10.7569 9.16548 10.5459 8.9545C10.335 8.74353 10.0488 8.625 9.75045 8.625C9.45208 8.625 9.16594 8.74353 8.95496 8.9545C8.74398 9.16548 8.62545 9.45163 8.62545 9.75ZM14.2505 8.625C14.5488 8.625 14.835 8.74353 15.0459 8.9545C15.2569 9.16548 15.3755 9.45163 15.3755 9.75V17.25C15.3755 17.5484 15.2569 17.8345 15.0459 18.0455C14.835 18.2565 14.5488 18.375 14.2505 18.375C13.9521 18.375 13.6659 18.2565 13.455 18.0455C13.244 17.8345 13.1255 17.5484 13.1255 17.25V9.75C13.1255 9.45163 13.244 9.16548 13.455 8.9545C13.6659 8.74353 13.9521 8.625 14.2505 8.625Z" fill="black"/>
</svg>
