<svg width="12" height="18" viewBox="0 0 12 18" fill="none" xmlns="http://www.w3.org/2000/svg">
<path d="M6 0.769531L5.25 1.60953C5.25 1.60953 3.97 3.05953 2.68 4.93953C1.39 6.81953 0 9.06953 0 11.2295C0 12.8208 0.632141 14.347 1.75736 15.4722C2.88258 16.5974 4.4087 17.2295 6 17.2295C7.5913 17.2295 9.11742 16.5974 10.2426 15.4722C11.3679 14.347 12 12.8208 12 11.2295C12 9.06953 10.61 6.81953 9.32 4.93953C8.52434 3.78376 7.6664 2.67212 6.75 1.60953L6 0.769531ZM6 3.89953C6.44 4.41953 6.84 4.84953 7.68 6.06953C8.89 7.82953 10 10.0695 10 11.2295C10 13.4495 8.22 15.2295 6 15.2295C3.78 15.2295 2 13.4495 2 11.2295C2 10.0695 3.11 7.82953 4.32 6.06953C5.16 4.84953 5.56 4.41953 6 3.89953Z" fill="black"/>
</svg>
