<svg width="20" height="20" viewBox="0 0 20 20" fill="none" xmlns="http://www.w3.org/2000/svg">
<path fill-rule="evenodd" clip-rule="evenodd" d="M15.3031 1.161L18.8391 4.697C19.0213 4.8856 19.1221 5.13821 19.1198 5.4004C19.1175 5.6626 19.0123 5.91341 18.8269 6.09882C18.6415 6.28423 18.3907 6.3894 18.1285 6.39167C17.8663 6.39395 17.6137 6.29316 17.4251 6.111L16.0101 7.525L17.7771 9.293C17.8726 9.38525 17.9488 9.49559 18.0012 9.6176C18.0536 9.7396 18.0812 9.87082 18.0824 10.0036C18.0835 10.1364 18.0582 10.2681 18.0079 10.391C17.9577 10.5139 17.8834 10.6255 17.7895 10.7194C17.6956 10.8133 17.584 10.8875 17.4611 10.9378C17.3382 10.9881 17.2065 11.0134 17.0737 11.0123C16.9409 11.0111 16.8097 10.9835 16.6877 10.9311C16.5657 10.8787 16.4554 10.8025 16.3631 10.707L15.6571 10L10.0001 15.657C9.43754 16.2194 8.67461 16.5354 7.87912 16.5354C7.08363 16.5354 6.3207 16.2194 5.75812 15.657L2.63612 18.778C2.44752 18.9602 2.19491 19.061 1.93272 19.0587C1.67052 19.0564 1.41971 18.9512 1.2343 18.7658C1.04889 18.5804 0.943722 18.3296 0.941444 18.0674C0.939166 17.8052 1.03996 17.5526 1.22212 17.364L4.34312 14.243C4.06449 13.9644 3.84346 13.6337 3.69267 13.2697C3.54187 12.9057 3.46426 12.5155 3.46426 12.1215C3.46426 11.7275 3.54187 11.3373 3.69267 10.9733C3.84346 10.6093 4.06449 10.2786 4.34312 10L10.0001 4.343L9.29312 3.636C9.19761 3.54375 9.12143 3.43341 9.06902 3.31141C9.01661 3.1894 8.98902 3.05818 8.98787 2.9254C8.98671 2.79262 9.01202 2.66094 9.0623 2.53805C9.11258 2.41515 9.18683 2.3035 9.28072 2.20961C9.37462 2.11571 9.48627 2.04146 9.60916 1.99118C9.73206 1.9409 9.86374 1.9156 9.99652 1.91675C10.1293 1.9179 10.2605 1.94549 10.3825 1.9979C10.5045 2.05031 10.6149 2.12649 10.7071 2.222L12.4751 3.989L13.8891 2.575C13.7936 2.48275 13.7174 2.37241 13.665 2.25041C13.6126 2.1284 13.585 1.99718 13.5839 1.8644C13.5827 1.73162 13.608 1.59994 13.6583 1.47705C13.7086 1.35415 13.7828 1.2425 13.8767 1.14861C13.9706 1.05471 14.0823 0.98046 14.2052 0.930179C14.3281 0.879899 14.4597 0.854597 14.5925 0.855751C14.7253 0.856904 14.8565 0.884491 14.9785 0.9369C15.1005 0.989309 15.2109 1.06549 15.3031 1.161ZM11.4141 5.757L10.0001 7.172L10.7071 7.878C10.8 7.97085 10.8737 8.08108 10.924 8.20241C10.9744 8.32375 11.0003 8.4538 11.0003 8.58515C11.0004 8.7165 10.9745 8.84657 10.9243 8.96794C10.8741 9.0893 10.8005 9.19959 10.7076 9.2925C10.6148 9.38541 10.5045 9.45912 10.3832 9.50943C10.2619 9.55974 10.1318 9.58566 10.0005 9.5857C9.86912 9.58575 9.73905 9.55993 9.61768 9.5097C9.49632 9.45948 9.38603 9.38585 9.29312 9.293L8.58612 8.586L7.87912 9.293L8.58612 10C8.68163 10.0922 8.75781 10.2026 8.81022 10.3246C8.86263 10.4466 8.89021 10.5778 8.89137 10.7106C8.89252 10.8434 8.86722 10.9751 8.81694 11.098C8.76666 11.2209 8.69241 11.3325 8.59851 11.4264C8.50462 11.5203 8.39297 11.5945 8.27007 11.6448C8.14718 11.6951 8.0155 11.7204 7.88272 11.7193C7.74994 11.7181 7.61872 11.6905 7.49671 11.6381C7.37471 11.5857 7.26437 11.5095 7.17212 11.414L6.46512 10.707L5.75812 11.414C5.66514 11.5069 5.59138 11.6172 5.54106 11.7386C5.49073 11.86 5.46483 11.9901 5.46483 12.1215C5.46483 12.2529 5.49073 12.383 5.54106 12.5044C5.59138 12.6258 5.66514 12.7361 5.75812 12.829L7.17212 14.243C7.35965 14.4305 7.61395 14.5358 7.87912 14.5358C8.14428 14.5358 8.39859 14.4305 8.58612 14.243L14.2431 8.586L11.4141 5.757ZM15.3041 3.989L13.8891 5.404L14.5961 6.111L16.0111 4.697L15.3041 3.989Z" fill="black"/>
</svg>
