<svg width="18" height="18" viewBox="0 0 18 18" fill="none" xmlns="http://www.w3.org/2000/svg">
<path d="M5.625 18C4.05833 18 2.729 17.454 1.637 16.362C0.545001 15.27 -0.000666057 13.9413 6.10128e-07 12.376C6.10128e-07 11.626 0.141667 10.9093 0.425001 10.226C0.708334 9.54267 1.11667 8.934 1.65 8.4L8.4 1.65C8.93333 1.11667 9.54167 0.708333 10.225 0.425C10.9083 0.141667 11.625 0 12.375 0C13.9417 0 15.271 0.545667 16.363 1.637C17.455 2.72833 18.0007 4.05767 18 5.625C18 6.375 17.8583 7.09167 17.575 7.775C17.2917 8.45833 16.8833 9.06667 16.35 9.6L9.6 16.35C9.06667 16.8833 8.45833 17.2917 7.775 17.575C7.09167 17.8583 6.375 18 5.625 18ZM12.275 10.85L14.95 8.2C15.2833 7.86667 15.5417 7.475 15.725 7.025C15.9083 6.575 16 6.10833 16 5.625C16 4.625 15.646 3.771 14.938 3.063C14.23 2.355 13.3757 2.00067 12.375 2C11.8917 2 11.425 2.09167 10.975 2.275C10.525 2.45833 10.1333 2.71667 9.8 3.05L7.15 5.725L12.275 10.85ZM5.625 16C6.10833 16 6.575 15.9083 7.025 15.725C7.475 15.5417 7.86667 15.2833 8.2 14.95L10.85 12.275L5.725 7.15L3.05 9.8C2.71667 10.1333 2.45833 10.525 2.275 10.975C2.09167 11.425 2 11.8917 2 12.375C2 13.375 2.35433 14.2293 3.063 14.938C3.77167 15.6467 4.62567 16.0007 5.625 16Z" fill="black"/>
</svg>
