<svg width="24" height="18" viewBox="0 0 24 18" fill="none" xmlns="http://www.w3.org/2000/svg">
<path d="M12.2006 0.347827C11.615 0.356264 11.1096 0.677358 10.5455 1.1125C7.53656 3.43286 3.84047 6.65036 2.80659 8.90692C2.41781 8.39083 1.06341 8.50483 1.06341 9.21892C1.06341 9.83158 2.00583 10.0011 2.54437 9.73895C2.51555 9.94211 2.52 10.1318 2.56055 10.3073C2.26209 10.3956 2.0318 10.5883 2.0318 10.8829C2.0318 11.528 3.07664 11.6833 3.59475 11.3591C3.83638 11.4919 4.08367 11.614 4.33594 11.7253C4.2975 11.7962 4.27734 11.877 4.27734 11.967C4.27734 12.5115 5.02116 12.706 5.565 12.5588C5.55816 12.5921 5.55469 12.6278 5.55469 12.6643C5.55469 13.5218 7.40184 13.5141 7.40184 12.6643C7.40184 12.6574 7.40062 12.6505 7.40044 12.6438C8.06958 12.772 8.7652 12.8678 9.47606 12.9323C9.61683 13.6036 11.0069 13.6312 11.269 13.029C11.9737 13.0426 12.6829 13.029 13.3857 12.988C13.3793 13.0205 13.374 13.055 13.374 13.0905C13.374 13.7547 14.4827 13.8992 14.9824 13.5358C15.5313 14.3505 17.6074 14.1968 17.6074 13.0964C17.6074 12.9884 17.5883 12.8897 17.5517 12.8005C18.0001 13.0116 18.6097 13.0454 19.1103 12.9016C19.2246 13.6754 20.9517 13.6397 20.9517 12.818C20.9517 12.376 20.4528 12.1698 19.9731 12.1896C20.0002 12.1054 20.0156 12.0146 20.0156 11.9172C20.0156 11.8305 20.0034 11.7499 19.9818 11.674C20.2201 11.5805 20.4495 11.4818 20.6689 11.3796C21.2427 11.1122 21.4935 10.6798 21.498 10.1344C22.0386 10.3862 22.9658 10.2078 22.9658 9.60569C22.9658 8.92802 21.7909 8.80094 21.3149 9.19989C20.4453 6.77926 16.6629 3.15517 13.7783 0.987951C13.1606 0.523889 12.6561 0.341264 12.2006 0.347827ZM22.4678 11.1804C22.0059 11.1824 21.5435 11.3949 21.5435 11.8118C21.5435 12.6692 23.3907 12.6616 23.3907 11.8118C23.3907 11.3868 22.9297 11.1783 22.4678 11.1804H22.4678ZM1.63922 11.7224C1.17731 11.7244 0.714844 11.9369 0.714844 12.3537C0.714844 13.2113 2.562 13.2035 2.562 12.3537C2.562 11.9288 2.10103 11.7204 1.63917 11.7224L1.63922 11.7224ZM3.76753 13.0554C3.2655 13.0576 2.763 13.2812 2.72897 13.7189C2.241 13.6941 1.72116 13.9054 1.72116 14.3473C1.72116 15.1602 3.38072 15.1957 3.55364 14.4733C4.13419 14.5479 4.80755 14.3118 4.80755 13.7673C4.80755 13.2889 4.28747 13.0531 3.76753 13.0554ZM7.94972 13.5431C7.63767 13.5445 7.32534 13.6416 7.15566 13.8332C6.52322 13.7001 5.70844 13.9398 5.70844 14.5407C5.70844 15.4509 7.47502 15.5333 7.82517 14.8088C8.32458 14.8496 8.87255 14.6377 8.87255 14.1745C8.87255 13.7496 8.41162 13.5411 7.94977 13.5431H7.94972ZM12.1303 13.6193C11.6685 13.6214 11.2061 13.8339 11.2061 14.2507C11.2061 15.1082 13.0547 15.1006 13.0547 14.2507C13.0547 13.8258 12.5922 13.6173 12.1303 13.6193ZM22.0034 13.9036C21.3964 13.9062 20.7891 14.1862 20.7891 14.7342C20.7891 15.8612 23.2162 15.851 23.2162 14.7341C23.2162 14.1757 22.6105 13.9009 22.0034 13.9036ZM18.479 14.2375C18.0171 14.2395 17.5546 14.452 17.5546 14.8688C17.5546 15.7264 19.4033 15.7187 19.4033 14.8688C19.4033 14.4439 18.9408 14.2355 18.4789 14.2375L18.479 14.2375ZM9.98137 14.8821C9.45178 14.8843 8.92233 15.1277 8.92233 15.6056C8.92233 16.191 9.67261 16.4238 10.2803 16.3117C10.6011 17.1885 12.6665 17.1002 12.6665 16.0699C12.6665 15.3566 11.6771 15.1082 10.9613 15.3068C10.7946 15.0206 10.3882 14.8802 9.98137 14.882V14.8821ZM15.6928 15.2072C15.4017 15.2085 15.1095 15.2935 14.9341 15.4606C14.3905 15.229 13.4913 15.4118 13.4913 15.9938C13.4912 16.6922 14.7165 16.8159 15.1714 16.3791C15.715 16.6146 16.6157 16.4319 16.6157 15.8386C16.6157 15.4136 16.1547 15.2052 15.6928 15.2072L15.6928 15.2072ZM4.42687 15.3274C3.89719 15.3296 3.36628 15.573 3.36628 16.051C3.36628 17.0343 5.48597 17.0255 5.48597 16.051C5.48597 15.5637 4.95647 15.325 4.42687 15.3273V15.3274ZM20.1328 15.9761C19.6129 15.9785 19.0927 16.2174 19.0927 16.6866C19.0927 17.652 21.1728 17.6433 21.1728 16.6866C21.1728 16.2082 20.6527 15.9738 20.1328 15.9761V15.9761ZM7.44581 16.0626C6.91612 16.0649 6.38672 16.3082 6.38672 16.7862C6.38672 17.7696 8.50491 17.7608 8.50491 16.7862C8.50491 16.299 7.97541 16.0603 7.44581 16.0626Z" fill="black"/>
</svg>
